<?xml version="1.0" standalone="no"?>
<!DOCTYPE svg PUBLIC "-//W3C//DTD SVG 20010904//EN"
 "http://www.w3.org/TR/2001/REC-SVG-20010904/DTD/svg10.dtd">
<svg version="1.0" xmlns="http://www.w3.org/2000/svg"
 width="512.000000pt" height="512.000000pt" viewBox="0 0 512.000000 512.000000"
 preserveAspectRatio="xMidYMid meet">

<g transform="translate(0.000000,512.000000) scale(0.100000,-0.100000)"
fill="#000000" stroke="none">
<path d="M1453 4365 c-17 -7 -40 -26 -50 -41 -17 -27 -18 -102 -21 -1751 -2
-1881 -6 -1770 54 -1810 27 -17 85 -18 1209 -21 790 -2 1192 0 1216 7 54 16
84 54 84 107 l0 44 -794 794 -794 794 144 158 c1390 1515 1439 1570 1445 1601
7 37 -16 92 -48 113 -33 22 -2396 27 -2445 5z m2371 -116 c-10 -12 -378 -414
-817 -893 l-798 -870 818 -818 818 -818 -1178 0 -1177 0 0 1710 0 1710 1177 0
1176 0 -19 -21z"/>
</g>
</svg>
