<svg xmlns="http://www.w3.org/2000/svg" width="245" height="400">
  <path fill="#4561b8" d="M161.844 368.225c-7.546-.025-13.63-6.256-13.489-13.812.124-7.441 6.227-13.28 13.774-13.213 7.432.056 13.517 6.265 13.384 13.631-.143 7.48-6.208 13.422-13.669 13.394m.104-40.921c-15.159 0-27.385 12.169-27.413 27.27-.01 15.274 12.302 27.614 27.49 27.538 15.14-.065 27.242-12.273 27.233-27.461 0-15.178-12.15-27.338-27.31-27.347M69 59.659a95.034 95.034 0 0 0-15.16-13.726 94.366 94.366 0 0 1 3.418 19.773zm54.381-28.021 16.84-8.676A94.516 94.516 0 0 0 125.954 0c.465 3.303.702 6.683.702 10.119a71.96 71.96 0 0 1-3.275 21.519"/>
  <path fill="#8ccf2e" d="M217.81 381.856v-12.89l-23.151 12.89z"/>
  <path fill="#3d9ede" d="M216.017 339.378s-.01 0-.01-.025c-2.298-5.24-7.699-11.865-19.963-11.789h-1.386v11.467c4.974 0 8.999 4.034 8.999 8.999 0 4.973-4.025 9.008-8.999 9.008v14.542s11.837-5.838 18.064-11.173a13.114 13.114 0 0 0 2.658-3.142s.721-1.357.769-1.461c2.392-5.174 2.079-11.96-.133-16.431m-184.9-191.569a125.53 125.53 0 0 0-.769 2.687l112.237-57.827a92.88 92.88 0 0 0 3.977-14.865c.295-1.595.541-3.209.75-4.841z"/>
  <path fill="#eb0c82" d="M127.539 339.378s-.01 0-.01-.025c-2.297-5.24-7.698-11.865-19.962-11.789h-1.386v11.467c4.974 0 8.998 4.034 8.998 8.999 0 4.973-4.024 9.008-8.998 9.008v14.542s11.837-5.838 18.064-11.173a13.113 13.113 0 0 0 2.657-3.142s.722-1.357.779-1.461c2.382-5.174 2.07-11.96-.143-16.431m1.804 42.483v-12.89l-23.161 12.89zM148.09 60.789a95.75 95.75 0 0 0-.806-12.426l-98.673 63.56a95.418 95.418 0 0 1-3.968 7.566l103.296-53.223c.104-1.813.151-3.636.151-5.477"/>
  <path fill="#fabd1e" d="M237.62 349.696c-.01 0-.01 0-.01-.025.162-.199 3.921-5.02 2.431-11.485 0 0-2.079-9.492-13.792-10.575h-.01v9.398h.01a5.267 5.267 0 0 1 5.258 5.268 5.26 5.26 0 0 1-5.258 5.268h-.01v8.192h.01a7.193 7.193 0 0 1 5.99 3.19 7.173 7.173 0 0 1 1.243 4.005c.02 4.006-3.398 7.281-7.395 7.281h-.105v11.495h.01c.314.03 12.15 1.082 17.855-11.676 0 0 5.012-12.207-6.227-20.398M146.485 43.37a93.458 93.458 0 0 0-4.546-16.184l-22.582 14.552a72.24 72.24 0 0 1-25.44 28.714zM55.701 90.148l25.544-13.156a92.639 92.639 0 0 0-4.708-7.67L56.935 81.947c-.01.028-.01.066-.01.095a94.746 94.746 0 0 1-1.224 8.106"/>
  <path fill="#233866" d="M92.911 337.48c-4.794-6.626-12.311-9.949-20.864-9.93h-.684c-.199 0-.408 0-.607.025h-.105c-.142 0-.275 0-.417.024h-.01.01-.01c-.114 0-.238.024-.352.024h-.085a34.58 34.58 0 0 0-2.63.275c-14.788 2.117-25.534 17.04-22.544 31.506 1.984 9.606 7.319 16.364 15.852 19.933 1.159.475 2.374.902 3.655 1.272 3.275.93 6.426 1.32 9.454 1.187-3.028.133-6.18-.256-9.454-1.187a35.862 35.862 0 0 1-3.655-1.272 27.153 27.153 0 0 0 11.448 2.525c.617 0 1.225-.029 1.832-.065h-.01c8.258-.551 15.501-4.785 20.105-11.068.095-6.256.057-12.52.057-18.89H72.159v8.77h12.995a.975.975 0 0 1-.047.144 14.634 14.634 0 0 1-6.53 6.844 14.454 14.454 0 0 1-6.664 1.614c-8.012 0-14.514-6.493-14.514-14.514a14.48 14.48 0 0 1 4.898-10.859c4.262-3.987 10.442-5.012 15.824-2.278.218.104.427.219.636.342.56.313 1.11.664 1.651 1.034.38.276 1.101.883 1.101.883l11.4-6.35m-79.553 21.729H38.12v-10.736H13.422v-9.037h27.955v-11.2H0V381.2h41.719v-11.315H13.356Zm79.925-53.432c-2.041 4.68-4.433 9.919-6.55 14.03h-.18c-1.424-2.545-3.095-5.573-4.585-8.582a184.53 184.53 0 0 1-4.66 8.581h-.172c-2.097-4.11-4.451-9.35-6.492-14.03h3.91c.94 2.25 1.956 4.623 2.981 6.93 1.158-2.307 2.278-4.68 3.332-6.93h2.202a176.518 176.518 0 0 0 3.35 6.93 334.483 334.483 0 0 0 2.934-6.93zm-31.8-1.813 2.336.655 3.331-2.839-3.16-.901zm5.278 8.733c0-2.45-1.519-4.073-3.759-4.073-2.287 0-3.797 1.624-3.797 4.073 0 2.449 1.51 4.081 3.797 4.081 2.24 0 3.76-1.632 3.76-4.081m-11.344 0c0-4.262 3.038-7.1 7.584-7.1 4.51 0 7.537 2.838 7.537 7.1 0 4.271-3.028 7.11-7.537 7.11-4.546 0-7.584-2.839-7.584-7.11m-3.806 6.929c-1.386-2.174-2.934-4.158-4.851-6.379v6.379h-3.664v-13.85h3.664v6.01c1.747-2.099 3.237-4.026 4.49-6.01h4.157c-1.461 2.212-3.085 4.358-5.106 6.721 2.43 2.658 3.797 4.708 5.439 7.129zm-18.795-4.775h3.19c-.523-1.044-1.083-2.079-1.605-3.104a234.798 234.798 0 0 0-1.585 3.104m4.414 3.01H31.58l-.807 1.765h-3.91c2.315-4.68 5.03-9.92 7.441-14.04h.19c2.392 4.12 5.126 9.36 7.442 14.04h-3.911zm-16.707-2.412h.02zm6.284 4.177h-4.205c-.959-1.946-2.677-4.424-4.452-6.607.503.15.968.19 1.472.19 1.281 0 1.964-.883 1.964-2.212 0-1.329-.759-2.193-1.964-2.193h-1.984v10.822h-3.664v-13.85H20c3.218 0 5.382 1.927 5.382 4.832 0 1.756-.759 3.066-1.87 3.873.94 1.281 2.27 3.236 3.294 5.145m-18.291 0c-1.386-2.174-2.934-4.158-4.841-6.379v6.379H0v-13.85h3.674v6.01c1.737-2.099 3.236-4.026 4.49-6.01h4.148c-1.462 2.212-3.085 4.358-5.107 6.721 2.43 2.658 3.797 4.708 5.448 7.129zm97.277 0h1.518v-11.191l5.05 7.394h.076l5.05-7.414v11.21h1.557v-13.839h-1.586l-5.04 7.546-5.05-7.546h-1.576zm15.481 0h1.605l1.642-3.655h7.537l1.623 3.655h1.68l-6.303-13.944h-1.471zm3.864-5.069 3.16-7.053 3.152 7.053zm18.12-2.857v-1.528l-3.502 1.642v-6.028h-1.566v6.74l-1.481.693v1.528l1.48-.703v5.582h9.36v-1.443h-7.793v-4.85zm12.322 8.163c4.214 0 7.08-3.341 7.08-7.157v-.039c0-3.825-2.828-7.129-7.042-7.129-4.206 0-7.082 3.342-7.082 7.167v.039c0 3.816 2.829 7.12 7.044 7.12m.037-1.444c-3.16 0-5.458-2.572-5.458-5.714v-.039c0-3.151 2.26-5.686 5.42-5.686 3.17 0 5.468 2.582 5.468 5.724v.039c0 3.142-2.26 5.676-5.43 5.676m9.853 1.206h1.567v-4.88h3.36c2.952 0 5.44-1.546 5.44-4.537v-.038c0-2.734-2.051-4.386-5.184-4.386h-5.183zm1.567-6.312v-6.085h3.502c2.231 0 3.721 1.025 3.721 3v.039c0 1.822-1.509 3.047-3.797 3.047zm17.589 6.55c4.214 0 7.081-3.342 7.081-7.158v-.039c0-3.825-2.829-7.129-7.043-7.129-4.215 0-7.081 3.342-7.081 7.167v.039c0 3.816 2.828 7.12 7.043 7.12m.038-1.444c-3.17 0-5.458-2.572-5.458-5.714v-.039c0-3.151 2.25-5.686 5.42-5.686 3.16 0 5.458 2.582 5.458 5.724v.039c0 3.142-2.26 5.676-5.42 5.676m9.853 1.206h9.36v-1.443h-7.803v-12.397h-1.557zm16.497.2c2.753 0 4.728-1.539 4.728-3.921v-.039c0-2.117-1.424-3.246-4.51-3.91-3.046-.656-3.758-1.386-3.758-2.696v-.04c0-1.243 1.148-2.24 2.942-2.24 1.434 0 2.715.456 3.997 1.51l.91-1.206c-1.404-1.13-2.847-1.708-4.869-1.708-2.629 0-4.546 1.604-4.546 3.787v.039c0 2.278 1.461 3.303 4.65 3.996 2.905.617 3.598 1.348 3.598 2.63v.039c0 1.366-1.224 2.353-3.085 2.353-1.917 0-3.303-.654-4.746-1.955l-.968 1.14c1.661 1.49 3.465 2.22 5.657 2.22m7.414-.199h1.566v-3.72l2.943-2.981 5.325 6.701h1.955l-6.189-7.793 5.933-6.046h-2.012l-7.955 8.258v-8.258h-1.566zm12.444 0h1.604l1.643-3.654h7.537l1.623 3.654h1.68l-6.313-13.944h-1.461zm3.864-5.069 3.16-7.052 3.143 7.052zm-185.46 78.33v6.968h2.392v-4.49c.531-.19 1.186-.276 1.955-.276v-2.25c-.769 0-1.51.18-2.221.551-.598-.332-1.31-.503-2.127-.503m9.91 4.936c-.389.2-.759.295-1.11.295-.456 0-.807-.151-1.073-.466-.256-.313-.389-.73-.389-1.243 0-.513.152-.93.446-1.243.294-.314.684-.475 1.168-.475.284 0 .598.095.958.266zm0-4.632a3.655 3.655 0 0 0-1.547-.351c-1.053 0-1.889.322-2.534.987-.636.655-.95 1.519-.95 2.591 0 1.073.304 1.937.912 2.582.607.655 1.405.978 2.392.978.76 0 1.452-.17 2.088-.513.57.304 1.244.466 2.022.466v-10.043l-2.383.683zm-12.738 2.212v-.03c.503-.143.911-.37 1.215-.692.313-.323.465-.76.465-1.291 0-.456-.114-.845-.36-1.158a2.792 2.792 0 0 0-.922-.77 4.605 4.605 0 0 0-1.234-.407 6.883 6.883 0 0 0-1.29-.134c-.58 0-1.092.03-1.548.075a6.429 6.429 0 0 0-1.338.266v1.965c.256-.085.579-.16.95-.238a6.87 6.87 0 0 1 1.176-.105c.143 0 .294 0 .446.04.152.029.294.075.418.143.123.056.228.15.294.265a.768.768 0 0 1 .124.437c0 .18-.067.323-.19.427-.133.095-.285.17-.456.219-.18.046-.36.075-.55.075-.2 0-.361.024-.494.024h-.351c-.114 0-.238 0-.351-.024v1.927c.18-.029.36-.046.54-.065.172-.025.352-.025.542-.025.142 0 .294 0 .465.03.17.024.323.055.465.114.142.065.256.15.351.265a.649.649 0 0 1 .152.446c0 .16-.038.295-.114.4a.779.779 0 0 1-.304.246 1.504 1.504 0 0 1-.446.114 3.75 3.75 0 0 1-.54.03 6.61 6.61 0 0 1-1.235-.115 7.16 7.16 0 0 1-.987-.247v2.032a7.757 7.757 0 0 0 1.434.265c.275.038.54.055.816.075.275.024.54.029.797.029a6.6 6.6 0 0 0 1.367-.143 4.562 4.562 0 0 0 1.253-.437c.37-.2.674-.465.902-.797.227-.323.35-.722.35-1.206 0-.57-.17-1.015-.512-1.338-.341-.323-.769-.55-1.3-.684m154.183-1.323-.58-.133c-1.138-.275-2.087-.541-2.087-1.614 0-1.054.835-1.652 2.44-1.652.806 0 1.784.2 2.752.56v-.94a8.063 8.063 0 0 0-3.01-.607c-2.154 0-3.426 1.006-3.426 2.848 0 1.737 1.177 2.259 2.724 2.61l.58.134c1.395.323 2.382.816 2.382 1.946 0 1.101-.883 1.765-2.525 1.765-.816 0-1.822-.209-2.8-.664v.93c.797.475 2.126.722 3.142.722 2.126 0 3.398-1.083 3.398-2.886 0-1.936-1.281-2.62-2.99-3.019m-10.717 1.168h4.727v-1.016h-4.727v-3.389h5.079v-1.015h-6.303v10.024h6.426v-1.016h-5.202zm-9.435 1.557c-1.471-2.25-4.68-7.11-5.392-7.11v10.157h1.234l-.057-7.328c1.215 1.547 3.17 4.546 4.167 6.17h.095c.997-1.605 2.953-4.614 4.158-6.17l-.028 7.328h1.205v-10.157c-.712 0-3.91 4.86-5.382 7.11m-13.916-.38a114.956 114.956 0 0 1 2.164-4.66 93.773 93.773 0 0 1 2.174 4.66zm2.117-6.73a113.174 113.174 0 0 0-4.822 10.157h1.31a79.67 79.67 0 0 1 .968-2.411h5.192c.351.806.684 1.623.978 2.41h1.31c-1.395-3.388-3.218-7.176-4.813-10.156zm-9.73 5.6h2.668v3.351c-.703.2-1.52.323-2.089.323-2.544 0-3.91-1.68-3.91-4.091 0-2.535 1.556-4.167 3.996-4.167.769 0 1.965.199 2.753.512v-.959c-.912-.341-2.146-.569-3.104-.569-2.896 0-4.917 2.04-4.917 5.183 0 2.952 1.775 5.106 4.917 5.106.73 0 1.613-.15 2.382-.389.304.19.684.323 1.206.323v-5.638h-3.902zm-12.748-.132-1.395-1.168c-2.354-1.984-5.088-4.3-5.98-4.3v10.157h2.648l-.038-5.326 1.48 1.235c2.336 1.964 5.003 4.223 5.905 4.223V389.82h-2.658zm-14.827 1.234c.36-.74.77-1.5 1.149-2.25.38.75.788 1.51 1.148 2.25zm1.082-6.702c-1.746 2.98-3.711 6.768-5.391 10.157h2.828c.19-.427.38-.845.589-1.272h4.082c.208.427.398.845.588 1.272h2.829c-1.68-3.39-3.655-7.177-5.392-10.157zm-10.603 6.189h4.168v-2.183h-4.168v-1.68h4.67v-2.193h-7.327v10.024h7.423v-2.193h-4.766zm-8.04-1.073h-1.49v-2.79h1.49c.76 0 1.234.56 1.234 1.385 0 .855-.474 1.405-1.234 1.405m.276-4.983h-4.414v10.024h2.648v-2.848h1.633c2.307 0 3.844-1.471 3.844-3.683 0-2.098-1.49-3.493-3.711-3.493m-11.457 7.964c-1.652 0-2.753-1.177-2.753-2.952s1.1-2.952 2.753-2.952c1.623 0 2.714 1.177 2.714 2.952s-1.091 2.952-2.714 2.952m0-8.097c-3.294 0-5.487 2.06-5.487 5.145 0 3.085 2.193 5.144 5.487 5.144 3.255 0 5.458-2.06 5.458-5.144 0-3.085-2.203-5.145-5.458-5.145m-6.93 3.626c0-2.098-1.566-3.493-3.892-3.493h-4.366v10.024H90.1v-7.822h1.433c.864 0 1.424.617 1.424 1.576 0 .968-.503 1.604-1.424 1.604-.36 0-.702-.03-1.073-.143 1.291 1.585 2.535 3.37 3.228 4.784h3.047c-.75-1.386-1.709-2.791-2.383-3.73.798-.58 1.348-1.529 1.348-2.801m-12.957 2.782c0 1.016-.788 1.69-1.936 1.69-1.196 0-1.975-.674-1.975-1.69v-6.274h-2.657v6.758c0 2.041 1.841 3.398 4.603 3.398 2.772 0 4.614-1.357 4.614-3.398v-6.758h-2.649zm-12.976-.218h4.167v-2.183h-4.167v-1.68h4.67v-2.193H67.11v10.024h7.423v-2.193h-4.765zM26.816 175.949l93.423-48.135a94.929 94.929 0 0 0 17.589-24.13L26.825 175.19c0 .256-.01.503-.01.76m115.835-59.688 16.099-8.287a53.506 53.506 0 0 1-2.668-12.691 39.43 39.43 0 0 0-13.431 20.978m-1.196 9.7c0 .475.01.94.02 1.406a39.518 39.518 0 0 0 2.315 11.95l25.525-13.156a53.833 53.833 0 0 1-8.372-12.748zm18.168 62.147c-2.383 8.856-7.774 16.478-15.007 21.7l69.085-35.597a71.782 71.782 0 0 0-8.135-15.7zm-24.708 89.768c21.395-1.48 40.959-9.625 56.63-22.373.19-.161.39-.313.58-.475a.212.212 0 0 1 .056-.047v-.01c.067-.047.133-.105.2-.161.066-.048.133-.105.199-.162l.55-.465c8.23-7.053 14.799-16.004 19.137-26.142zm83.238-78.235-116.508 75.046c1.993.531 4.006 1.006 6.047 1.424l107.215-55.245a73.694 73.694 0 0 0 3.246-21.225m-3.417-22.421-136.48 87.918c.778.436 1.566.863 2.354 1.281l137.448-70.812a71.77 71.77 0 0 0-3.322-18.387m-53.764.522 42.62-21.956a71.813 71.813 0 0 0-12.32-12.681l-32.73 21.082a39.132 39.132 0 0 1 2.43 13.555m-39.393 39.507c-2.174 0-4.31-.18-6.389-.522L60.21 252.144c.266.246.541.493.816.73l73.148-37.684a39.503 39.503 0 0 1-12.596 2.06m-27.708-11.4-47.7 30.726.17.228 52.275-26.94a38.326 38.326 0 0 1-4.746-4.014m-8.62-12.73a37.563 37.563 0 0 1-1.765-5.192l-47.347 30.499zm.238-31.106-56.43 36.356c0 .02.01.038.01.057l53.754-27.699a38.65 38.65 0 0 1 2.668-8.714m65.743-10.109a39.35 39.35 0 0 1 3.863 5.23l32.55-16.772a72.973 72.973 0 0 0-5.145-3.313 54.561 54.561 0 0 1-9.312-6.91l-25.781 16.61a40.041 40.041 0 0 0 3.825 5.155"/>
</svg>
