<?xml version="1.0"?><svg xmlns="http://www.w3.org/2000/svg"  viewBox="0 0 50 50" width="50px" height="50px">    <path d="M 25 5 C 15.623004 5 8 12.623004 8 22 C 8 31.376996 15.623004 39 25 39 C 34.376996 39 42 31.376996 42 22 C 42 12.623004 34.376996 5 25 5 z M 38.800781 5 C 38.800781 5 40.200781 7.2935781 40.800781 7.8925781 C 41.500781 8.4915781 43.099609 9.2890625 43.099609 9.2890625 C 43.099609 9.2890625 42.300781 7.094875 41.300781 6.296875 C 40.300781 5.498875 38.800781 5 38.800781 5 z M 11.300781 5.1992188 C 11.300781 5.1992188 9.1003906 5.9973125 8.4003906 6.6953125 C 7.1003906 7.9923125 6.8007813 9.5898438 6.8007812 9.5898438 C 6.8007812 9.5898438 8.2003906 8.8903594 9.4003906 7.6933594 C 10.400391 6.6953594 11.300781 5.1992187 11.300781 5.1992188 z M 43.199219 6.6972656 C 43.199219 6.6972656 43.500781 7.5951406 43.800781 7.9941406 C 44.100781 8.4931406 44.1 9.4902812 44.5 10.488281 C 44.9 11.486281 45.200391 11.983984 44.900391 12.083984 C 44.700391 12.183984 43.999609 11.684547 43.599609 11.185547 C 43.099609 10.686547 42.2 10.387672 41.5 9.8886719 C 40.8 9.4886719 40.400391 9.0898437 40.400391 9.0898438 C 40.400391 9.0898438 40.800391 10.586156 41.900391 11.285156 C 42.500391 11.684156 44.100781 12.881859 44.800781 13.380859 C 45.500781 13.879859 45.800781 14.378906 45.800781 14.378906 C 45.800781 14.378906 45.8 10.587625 45.5 9.390625 C 45.1 8.193625 43.199219 6.6972656 43.199219 6.6972656 z M 7 6.796875 C 7 6.796875 5.0996094 7.8920625 4.5996094 9.2890625 C 4.1996094 10.386062 4.3992188 11.485031 4.1992188 12.582031 C 3.9992187 13.679031 4.3007812 14.476562 4.3007812 14.476562 C 4.3007812 14.476562 4.3996094 14.177516 5.0996094 13.478516 C 5.7996094 12.779516 6.8 12.381813 7.5 11.882812 C 9.1 10.785812 9.8007812 9.0898438 9.8007812 9.0898438 C 9.8007812 9.0898438 8.9003906 9.8885 8.4003906 10.1875 C 8.0003906 10.3875 7.1 10.884203 6.5 11.283203 C 6 11.582203 5.6992187 12.580078 5.6992188 12.580078 C 5.6992188 12.580078 5.1007813 12.082375 5.3007812 11.484375 C 5.5007813 10.885375 5.8003906 10.386109 5.9003906 9.7871094 C 6.0003906 9.1891094 6.2 8.2915781 6.5 7.8925781 C 6.7 7.4935781 7 6.796875 7 6.796875 z M 24.810547 7.0097656 L 24.810547 9.2792969 C 22.850547 9.2992969 21.009375 9.7796094 19.359375 10.599609 C 18.169375 11.189609 17.090625 11.949141 16.140625 12.869141 L 14.529297 11.259766 C 17.188563 8.6670842 20.807302 7.0596727 24.810547 7.0097656 z M 25.189453 7.0097656 C 29.190194 7.0596415 32.806039 8.6660265 35.464844 11.255859 L 34.169922 12.550781 C 34.109922 12.570781 34.049766 12.570781 34.009766 12.550781 C 33.889766 12.510781 34.050781 12.390625 34.050781 12.390625 L 34.050781 12.259766 L 33.960938 12.160156 C 33.960938 12.160156 33.679922 12.190391 33.669922 12.150391 C 33.649922 12.100391 33.599609 11.880859 33.599609 11.880859 L 33.589844 11.599609 L 33.470703 11.560547 L 33.460938 11.460938 L 33.279297 11.470703 L 33.279297 11.279297 L 33.179688 11.240234 L 33.089844 11.199219 L 33.070312 11 L 32.710938 10.980469 L 32.599609 10.820312 L 32.470703 10.619141 L 32.070312 10.589844 L 31.970703 10.490234 L 31.810547 10.460938 L 31.699219 10.410156 L 31.650391 10.490234 L 31.339844 10.509766 L 31.330078 10.609375 C 31.230078 10.649375 30.969531 10.650391 30.769531 10.650391 C 30.439531 10.490391 30.119297 10.339219 29.779297 10.199219 C 28.339297 9.6192187 26.789453 9.2992969 25.189453 9.2792969 L 25.189453 7.0097656 z M 27.470703 7.75 C 27.400703 7.76 27.330312 7.7903125 27.320312 7.8203125 C 27.315312 7.8553125 27.287969 7.8754687 27.261719 7.8867188 C 27.235469 7.8979688 27.210937 7.9003906 27.210938 7.9003906 L 26.839844 7.9394531 C 26.824844 7.9844531 26.767891 8.0249219 26.712891 8.0449219 C 26.657891 8.0649219 26.604609 8.0642969 26.599609 8.0292969 C 26.589609 8.0092969 26.580313 7.9902344 26.570312 7.9902344 C 26.535312 7.9902344 26.492969 8.0482813 26.480469 8.1132812 C 26.474219 8.1457813 26.474844 8.1789844 26.488281 8.2089844 C 26.501719 8.2389844 26.527812 8.2642969 26.570312 8.2792969 C 26.780313 8.3492969 26.990234 8.2792969 26.990234 8.2792969 L 27.029297 8.1796875 L 27.839844 8.1992188 C 27.909844 8.1292187 27.939453 8.0292969 27.939453 8.0292969 C 27.939453 8.0292969 27.96 8.0197656 28 8.0097656 L 28 7.8203125 L 27.910156 7.8203125 L 27.619141 7.8203125 C 27.614141 7.7903125 27.595859 7.7717187 27.568359 7.7617188 C 27.540859 7.7517188 27.505703 7.75 27.470703 7.75 z M 26.080078 8.0800781 L 25.869141 8.1699219 L 25.650391 8.3105469 L 25.400391 8.3496094 L 25.269531 8.4902344 L 25.789062 8.5390625 L 25.890625 8.7109375 L 26.259766 8.7402344 L 26.5 8.9804688 C 26.5525 8.9979688 26.594766 9.0051563 26.626953 9.0039062 C 26.659141 9.0026562 26.682109 8.9915625 26.693359 8.9765625 C 26.704609 8.9615625 26.703672 8.9417187 26.693359 8.9179688 C 26.683047 8.8942188 26.663359 8.8673437 26.630859 8.8398438 L 26.419922 8.6191406 L 26.419922 8.4394531 L 26.359375 8.3808594 L 26.289062 8.1503906 L 26.080078 8.0800781 z M 24.810547 9.6601562 L 24.810547 12.269531 C 23.350547 12.299531 21.98 12.65 20.75 13.25 C 19.83 13.7 18.989766 14.290234 18.259766 14.990234 L 16.410156 13.140625 C 17.350156 12.230625 18.389297 11.489688 19.529297 10.929688 L 19.539062 10.929688 C 21.169062 10.129687 22.950547 9.6901562 24.810547 9.6601562 z M 25.189453 9.6601562 C 26.739453 9.6801562 28.240625 9.9905469 29.640625 10.560547 C 29.910625 10.670547 30.179453 10.789922 30.439453 10.919922 C 30.419453 10.969922 30.389375 11.019531 30.359375 11.019531 C 30.279375 11.019531 30.310547 11.230469 30.310547 11.230469 C 30.310547 11.230469 30.520078 11.230234 30.580078 11.240234 C 30.650078 11.260234 30.650391 11.419922 30.650391 11.419922 C 30.890391 11.409922 30.989219 11.740312 30.949219 11.820312 C 30.919219 11.900313 31.050781 11.900391 31.050781 11.900391 C 31.050781 11.900391 31.049531 12.160469 31.019531 12.230469 C 30.989531 12.290469 31.229062 12.339453 31.289062 12.439453 C 31.359063 12.539453 31.260937 12.870859 31.210938 12.880859 C 31.160937 12.900859 31.340078 12.949297 31.330078 13.029297 C 31.310078 13.109297 31.370625 13.030156 31.390625 13.160156 C 31.410625 13.290156 31.439453 13.570312 31.439453 13.570312 L 31.660156 13.589844 C 31.700156 13.369844 32.109687 13.370625 32.179688 13.390625 C 32.459688 13.490625 32.669922 13.909766 32.669922 14.009766 C 32.669922 14.109766 32.490234 14.130859 32.490234 14.130859 L 32.5 14.230469 L 31.929688 14.800781 C 31.869688 14.760781 31.809297 14.749531 31.779297 14.769531 C 31.699297 14.809531 31.730469 14.419922 31.730469 14.419922 C 31.730469 14.419922 31.879453 14.319141 31.939453 14.369141 C 31.999453 14.419141 31.389766 13.550625 31.259766 13.640625 C 31.129766 13.720625 30.839375 13.550156 30.859375 13.410156 C 30.859375 13.250156 30.279297 12.769531 30.279297 12.769531 C 30.279297 12.769531 30.080781 12.640234 30.050781 12.740234 C 30.020781 12.830234 29.950781 12.899219 30.050781 12.949219 C 30.150781 12.999219 30.13 12.870469 30.25 12.980469 C 30.36 13.100469 30.570234 13.239844 30.490234 13.339844 C 30.410234 13.439844 30.310547 13.470703 30.310547 13.470703 L 30.419922 13.599609 L 30.599609 13.599609 L 30.630859 13.880859 C 30.630859 13.880859 30.829141 13.979844 30.869141 14.089844 C 30.909141 14.169844 30.920156 14.219531 30.910156 14.269531 C 30.550156 13.989531 30.169297 13.739531 29.779297 13.519531 L 29.779297 13.439453 C 29.739297 13.319453 29.910234 13.280156 29.990234 13.410156 L 30.150391 13.390625 L 30.179688 13.240234 L 29.949219 13.060547 L 29.779297 13.060547 C 29.779297 13.060547 29.760391 13.190625 29.650391 13.140625 C 29.530391 13.100625 29.6 13.109609 29.5 13.099609 C 29.42 13.079609 29.429219 13.259609 29.449219 13.349609 C 29.199219 13.219609 28.949453 13.100234 28.689453 12.990234 C 27.589453 12.540234 26.409453 12.299531 25.189453 12.269531 L 25.189453 10.830078 C 25.299453 10.840078 25.339609 10.8 25.349609 10.75 C 25.369609 10.69 25.390469 10.670391 25.480469 10.650391 C 25.580469 10.640391 25.469141 10.440938 25.369141 10.460938 C 25.299141 10.470937 25.229453 10.450391 25.189453 10.400391 L 25.189453 9.6601562 z M 32.5 10.060547 C 32.435 10.060547 32.354219 10.082187 32.292969 10.117188 C 32.262344 10.134688 32.237734 10.155234 32.220703 10.177734 C 32.203672 10.200234 32.194219 10.225 32.199219 10.25 C 32.204219 10.29 32.224766 10.329531 32.259766 10.363281 C 32.294766 10.397031 32.345156 10.424453 32.410156 10.439453 L 32.650391 10.519531 C 32.650391 10.519531 32.725078 10.610234 32.798828 10.677734 C 32.872578 10.745234 32.944453 10.789219 32.939453 10.699219 C 32.931953 10.576719 32.911797 10.485469 32.884766 10.414062 C 32.857734 10.342656 32.824688 10.292031 32.789062 10.253906 C 32.717813 10.177656 32.639609 10.149609 32.599609 10.099609 C 32.579609 10.069609 32.55 10.060547 32.5 10.060547 z M 46.699219 10.585938 C 46.699219 10.585938 46.9 11.482078 47 12.080078 C 47.1 12.679078 46.900781 15.074266 46.800781 15.572266 C 46.700781 16.071266 46.999219 17.367797 46.699219 17.466797 C 46.399219 17.566797 45.500781 15.971828 44.800781 15.173828 C 44.200781 14.377828 42.699219 13.478516 42.699219 13.478516 C 42.699219 13.478516 43.400781 14.776047 43.800781 15.873047 C 44.300781 16.970047 45.499609 18.266844 46.099609 18.964844 C 46.699609 19.662844 46.900391 20.261719 46.900391 20.261719 C 46.900391 20.261719 47.199609 19.264797 47.599609 18.466797 C 48.399609 17.069797 48.300391 16.67 48.400391 14.875 C 48.400391 13.079 46.699219 10.585938 46.699219 10.585938 z M 3.1992188 10.685547 C 3.1992188 10.685547 1.7996094 12.581344 1.5996094 14.277344 C 1.3996094 15.973344 1.4992188 17.368406 2.1992188 18.566406 C 2.6992188 19.364406 2.8007813 20.462891 2.8007812 20.462891 C 2.8007812 20.462891 2.9996094 19.863625 3.5996094 19.265625 C 4.1996094 18.666625 5.2003906 17.769266 5.9003906 16.572266 C 6.6003906 15.375266 7.1992188 13.779297 7.1992188 13.779297 C 7.1992188 13.779297 6.1003906 14.378563 5.4003906 14.976562 C 3.8003906 16.372563 3 17.769531 3 17.769531 C 3 17.769531 2.5992187 17.370484 2.6992188 16.771484 C 2.9992187 16.273484 3.1 15.374781 3 14.675781 C 2.9 14.076781 2.7003906 13.678859 2.9003906 12.880859 C 3.0003906 12.083859 3.1992187 10.685547 3.1992188 10.685547 z M 14.259766 11.529297 L 15.869141 13.140625 C 14.919141 14.120625 14.119297 15.25 13.529297 16.5 C 12.749297 18.11 12.299297 19.910547 12.279297 21.810547 L 10.009766 21.810547 C 10.059673 17.807302 11.667084 14.188563 14.259766 11.529297 z M 35.740234 11.529297 C 38.330791 14.186384 39.937812 17.801443 39.990234 21.800781 L 37.730469 21.800781 C 37.700469 20.230781 37.390078 18.709062 36.830078 17.289062 C 36.750078 17.089063 36.660313 16.879687 36.570312 16.679688 C 36.590313 16.599688 36.64 16.499297 36.75 16.529297 C 36.91 16.579297 36.800781 16.169922 36.800781 16.169922 C 36.800781 16.169922 36.569844 16.009687 36.589844 15.929688 C 36.599844 15.849687 36.360859 15.679141 36.380859 15.619141 C 36.380859 15.549141 36.179688 15.419375 36.179688 15.359375 C 36.199688 15.289375 36.070312 15.109375 36.070312 15.109375 L 35.830078 14.880859 L 35.800781 14.730469 L 35.599609 14.720703 L 35.220703 14.240234 L 35.230469 14.109375 L 35.119141 14.089844 L 35.119141 13.910156 L 35.009766 13.849609 L 34.830078 13.830078 L 34.470703 13.439453 L 34.439453 13.259766 L 34.259766 13.259766 L 34.289062 12.980469 L 35.740234 11.529297 z M 28.189453 11.859375 C 28.179453 11.859375 28.160156 11.870859 28.160156 11.880859 C 28.160156 11.930859 28.229766 11.929297 28.259766 12.029297 C 28.274766 12.079297 28.280078 12.145625 28.298828 12.203125 C 28.308203 12.231875 28.320625 12.259063 28.339844 12.28125 C 28.359063 12.303437 28.384922 12.320078 28.419922 12.330078 C 28.494922 12.345078 28.539609 12.360859 28.568359 12.380859 C 28.597109 12.400859 28.609141 12.425937 28.619141 12.460938 C 28.624141 12.490938 28.6725 12.510937 28.71875 12.523438 C 28.765 12.535938 28.810547 12.539062 28.810547 12.539062 L 28.939453 12.599609 L 29.330078 12.929688 L 29.330078 12.800781 C 29.330078 12.800781 29.325547 12.766875 29.310547 12.734375 C 29.295547 12.701875 29.270469 12.669922 29.230469 12.669922 C 29.190469 12.669922 29.132344 12.645781 29.089844 12.613281 C 29.047344 12.580781 29.019063 12.539766 29.039062 12.509766 C 29.054063 12.474766 28.985859 12.440313 28.912109 12.414062 C 28.838359 12.387812 28.759766 12.369141 28.759766 12.369141 C 28.759766 12.369141 28.692969 12.304141 28.636719 12.244141 C 28.580469 12.184141 28.535078 12.130391 28.580078 12.150391 C 28.605078 12.157891 28.621484 12.154375 28.630859 12.144531 C 28.640234 12.134688 28.642578 12.118438 28.642578 12.101562 C 28.642578 12.067812 28.630859 12.029297 28.630859 12.029297 C 28.630859 12.029297 28.440625 12.060781 28.390625 12.050781 C 28.365625 12.040781 28.356719 11.997031 28.355469 11.957031 C 28.354219 11.917031 28.359375 11.880859 28.359375 11.880859 C 28.359375 11.880859 28.249453 11.859375 28.189453 11.859375 z M 24.810547 12.660156 L 24.810547 15.539062 C 23.900547 15.569063 23.039766 15.780391 22.259766 16.150391 C 21.639766 16.440391 21.070312 16.830781 20.570312 17.300781 L 18.529297 15.259766 C 19.249297 14.569766 20.049922 14.009844 20.919922 13.589844 C 22.119922 13.009844 23.440547 12.690156 24.810547 12.660156 z M 25.189453 12.660156 C 26.359453 12.680156 27.489063 12.919609 28.539062 13.349609 C 28.829062 13.469609 29.120625 13.6 29.390625 13.75 C 29.400625 13.76 29.419453 13.769297 29.439453 13.779297 C 29.899453 14.019297 30.33 14.310859 30.75 14.630859 C 30.76 14.750859 30.890625 14.800781 30.890625 14.800781 L 30.960938 14.810547 C 31.020937 14.850547 31.069141 14.889453 31.119141 14.939453 L 31.119141 15.080078 C 31.229141 15.050078 31.399453 15.179062 31.439453 15.289062 L 29.429688 17.300781 C 28.859687 16.760781 28.200234 16.329062 27.490234 16.039062 C 26.770234 15.739062 25.989453 15.569062 25.189453 15.539062 L 25.189453 12.660156 z M 16.140625 13.410156 L 17.990234 15.259766 C 17.240234 16.039766 16.629922 16.939922 16.169922 17.919922 C 15.619922 19.109922 15.299531 20.420547 15.269531 21.810547 L 12.660156 21.810547 C 12.690156 20.000547 13.099375 18.259688 13.859375 16.679688 C 14.429375 15.489688 15.190625 14.380156 16.140625 13.410156 z M 32.619141 14.650391 C 32.849141 14.780391 33.020234 15.090625 32.990234 15.140625 C 32.960234 15.210625 33.179688 15.189453 33.179688 15.189453 C 33.209688 14.899453 33.49 14.989844 33.5 15.089844 C 33.52 15.189844 33.570313 15.400391 33.570312 15.400391 L 33.650391 15.550781 L 33.759766 15.669922 L 33.939453 15.650391 L 33.990234 15.75 L 34.199219 15.779297 C 34.199219 15.779297 34.380625 15.979297 34.390625 16.029297 C 34.410625 16.079297 34.650937 16.060078 34.710938 16.080078 C 34.780938 16.090078 34.880625 16.140703 34.890625 16.220703 C 34.910625 16.310703 35.009766 16.439453 35.009766 16.439453 C 35.009766 16.439453 35.200703 16.490781 35.220703 16.550781 C 35.230703 16.620781 35.310547 16.759766 35.310547 16.759766 L 35.470703 16.900391 L 35.490234 17.039062 L 35.669922 17.060547 L 35.720703 17.259766 L 36.009766 17.240234 L 36.169922 17.119141 C 36.219922 17.099141 36.260781 17.069063 36.300781 17.039062 C 36.360781 17.169062 36.420703 17.309453 36.470703 17.439453 C 37.020703 18.819453 37.319844 20.290781 37.339844 21.800781 L 34.730469 21.800781 C 34.720469 21.340781 34.669609 20.879687 34.599609 20.429688 C 34.619609 20.369688 34.629609 20.309063 34.599609 20.289062 C 34.549609 20.239062 34.650391 20.009766 34.650391 20.009766 C 34.650391 20.009766 34.720391 19.88 34.650391 19.75 C 34.590391 19.61 34.670703 19.470391 34.720703 19.400391 L 34.589844 19.339844 L 34.460938 19.320312 L 34.359375 19.339844 C 34.329375 19.229844 34.299766 19.129297 34.259766 19.029297 L 34.259766 19.019531 L 34.339844 19.039062 L 34.339844 18.939453 L 34.230469 18.910156 C 34.200469 18.840156 34.180156 18.770937 34.160156 18.710938 L 34.130859 18.369141 L 34.019531 18.289062 L 34.050781 18.160156 L 33.919922 18.109375 L 33.990234 17.890625 L 33.880859 17.660156 L 33.710938 17.660156 C 33.640937 17.510156 33.550703 17.359219 33.470703 17.199219 C 33.480703 17.189219 33.499062 17.179922 33.539062 17.169922 C 33.619062 17.149922 33.649922 17.150391 33.669922 17.150391 L 33.650391 16.980469 L 33.509766 16.880859 L 33.460938 16.679688 C 33.460938 16.679688 33.280781 16.720547 33.300781 16.810547 C 33.300781 16.840547 33.289531 16.849141 33.269531 16.869141 C 33.149531 16.689141 33.040156 16.510078 32.910156 16.330078 C 32.920156 16.320078 32.919922 16.310547 32.919922 16.310547 C 32.989922 16.190547 32.959844 16.129844 32.839844 16.089844 C 32.729844 16.059844 32.729219 16.059688 32.699219 15.929688 C 32.669219 15.799687 32.539062 15.769531 32.539062 15.769531 L 32.490234 15.570312 L 32.369141 15.640625 C 32.299141 15.570625 32.239922 15.499922 32.169922 15.419922 L 32.230469 15.240234 C 32.170469 15.230234 32.129141 15.190391 32.119141 15.150391 L 32.619141 14.650391 z M 18.259766 15.529297 L 20.300781 17.570312 C 19.880781 18.020312 19.520234 18.529844 19.240234 19.089844 C 19.160234 19.089844 19.100078 19.100156 19.080078 19.160156 C 19.030078 19.290156 18.820312 19.25 18.820312 19.25 L 18.789062 19.320312 L 18.619141 19.349609 L 18.589844 19.449219 L 18.400391 19.480469 L 18.880859 19.470703 C 19.010859 19.450703 18.84 19.750469 18.75 19.730469 L 18.529297 19.75 L 18.449219 19.830078 L 18.240234 19.830078 L 18.140625 19.960938 L 17.839844 19.939453 C 17.839844 19.939453 17.669922 20.080625 17.669922 20.140625 C 17.689922 20.190625 17.639844 20.339844 17.589844 20.339844 C 17.539844 20.339844 17.450469 20.479297 17.480469 20.529297 C 17.510469 20.579297 17.380859 20.75 17.380859 20.75 L 17.349609 20.910156 L 17.25 20.939453 L 17.25 21.380859 L 17.060547 21.519531 L 17.060547 21.710938 L 16.970703 21.810547 L 15.660156 21.810547 C 15.680156 20.510547 15.98 19.249375 16.5 18.109375 C 16.93 17.169375 17.519766 16.299297 18.259766 15.529297 z M 31.710938 15.560547 C 31.780938 15.630547 31.769375 15.650703 31.859375 15.720703 C 31.889375 15.740703 31.919219 15.75 31.949219 15.75 L 32.099609 15.929688 L 32.070312 15.980469 C 32.070313 16.170469 32.160234 16.109609 32.240234 16.099609 C 32.270234 16.129609 32.300312 16.159453 32.320312 16.189453 C 32.330312 16.299453 32.33 16.459453 32.5 16.439453 L 32.509766 16.439453 C 32.719766 16.719453 32.910078 17.010781 33.080078 17.300781 L 33.089844 17.320312 C 33.119844 17.370313 33.149922 17.420703 33.169922 17.470703 C 33.139922 17.500703 33.119141 17.529297 33.119141 17.529297 L 32.859375 17.570312 L 32.859375 17.830078 L 32.730469 17.880859 L 32.75 18.039062 L 32.919922 18.029297 C 32.919922 18.029297 32.920703 18.220625 32.970703 18.140625 C 33.020703 18.060625 33.420625 18.159609 33.390625 18.349609 C 33.380625 18.429609 33.8 18.650156 33.75 18.910156 C 33.78 18.910156 33.810078 18.919453 33.830078 18.939453 C 33.910078 19.159453 33.969063 19.389141 34.039062 19.619141 L 34 19.679688 C 34 19.679688 34.030547 19.700469 34.060547 19.730469 C 34.110547 19.930469 34.159453 20.139844 34.189453 20.339844 C 34.179453 20.519844 34.140781 20.690234 34.050781 20.740234 C 33.860781 20.860234 34.070312 20.789063 34.070312 20.789062 L 34.039062 21.150391 C 34.089062 21.320391 34.170938 21.240391 34.210938 21.150391 C 34.240938 21.110391 34.269063 21.080547 34.289062 21.060547 C 34.319063 21.310547 34.339844 21.550781 34.339844 21.800781 L 32.390625 21.800781 C 32.400625 21.790781 32.419922 21.759766 32.419922 21.759766 L 32.5 21.529297 L 32.779297 21.449219 L 32.810547 21.240234 L 32.669922 21.220703 C 32.669922 21.220703 32.830156 20.919922 32.910156 20.919922 C 32.990156 20.919922 33.520313 20.920625 33.570312 20.890625 C 33.620312 20.860625 33.710938 20.600781 33.710938 20.550781 C 33.710938 20.500781 33.840625 20.480703 33.890625 20.470703 C 33.940625 20.450703 34.049844 20.32 34.089844 20.25 C 34.119844 20.19 33.999453 19.779844 33.939453 19.839844 C 33.879453 19.909844 33.730469 19.939453 33.730469 19.939453 L 33.679688 20.119141 L 33.599609 20.189453 C 33.599609 20.189453 33.619609 20.239609 33.599609 20.349609 C 33.589609 20.469609 33.439453 20.529297 33.439453 20.529297 L 33.380859 20.609375 C 33.380859 20.609375 32.989453 20.629375 32.939453 20.609375 C 32.789453 20.549375 32.890234 20.349141 32.990234 20.369141 C 33.080234 20.379141 32.970703 20.089844 32.970703 20.089844 L 33.099609 20.070312 C 33.099609 20.070312 33.119922 19.779297 33.169922 19.779297 C 33.209922 19.779297 33.150078 19.680859 33.080078 19.630859 C 33.020078 19.580859 32.939141 19.419687 32.869141 19.429688 C 32.809141 19.449687 32.550781 19.429688 32.550781 19.429688 L 32.5 19.529297 L 32.330078 19.560547 C 32.330078 19.560547 32.340547 19.690469 32.310547 19.730469 C 32.210547 19.840469 31.84 20.089688 32 19.679688 L 32.050781 19.580078 L 32.050781 19.429688 L 31.759766 19.419922 C 31.759766 19.419922 31.619141 19.370781 31.619141 19.300781 C 31.619141 19.240781 31.599609 19.160156 31.599609 19.160156 L 31.259766 18.779297 L 30.859375 18.730469 L 30.830078 18.650391 L 30.580078 18.609375 C 30.550078 18.599375 30.510469 18.580312 30.480469 18.570312 C 30.360469 18.390313 30.239375 18.220781 30.109375 18.050781 C 30.109375 18.030781 30.099609 18.019766 30.099609 18.009766 C 30.079609 17.949766 29.910547 17.699453 29.810547 17.689453 C 29.770547 17.649453 29.739219 17.610312 29.699219 17.570312 L 31.710938 15.560547 z M 33.300781 15.759766 C 33.270781 15.769766 33.259766 15.780547 33.259766 15.810547 C 33.259766 15.845547 33.280625 15.870234 33.296875 15.896484 C 33.313125 15.922734 33.325547 15.950234 33.310547 15.990234 C 33.295547 16.035234 33.302266 16.073359 33.322266 16.099609 C 33.342266 16.125859 33.375156 16.140625 33.410156 16.140625 C 33.470156 16.140625 33.519844 16.170938 33.589844 16.210938 C 33.649844 16.240937 33.7 16.289609 33.75 16.349609 L 33.910156 16.310547 C 33.910156 16.310547 33.913203 16.266719 33.908203 16.230469 C 33.905703 16.212344 33.900078 16.196406 33.892578 16.1875 C 33.885078 16.178594 33.874375 16.176953 33.859375 16.189453 C 33.829375 16.214453 33.802188 16.186797 33.773438 16.154297 C 33.744687 16.121797 33.714687 16.084844 33.679688 16.089844 C 33.619687 16.109844 33.589531 16.029219 33.519531 15.949219 C 33.459531 15.859219 33.470625 15.850781 33.390625 15.800781 C 33.350625 15.770781 33.320781 15.759766 33.300781 15.759766 z M 24.810547 15.929688 L 24.810547 18.550781 C 24.460547 18.560781 24.140078 18.63 23.830078 18.75 L 23.820312 18.75 L 23.810547 18.570312 L 23.890625 18.519531 L 23.759766 18.470703 L 23.660156 18.599609 L 23.630859 18.75 L 23.470703 18.779297 L 23.470703 18.859375 L 23.349609 18.859375 L 23.349609 18.960938 C 23.119609 19.090937 22.899453 19.239922 22.689453 19.419922 L 20.839844 17.570312 C 21.319844 17.120313 21.859453 16.760234 22.439453 16.490234 C 23.179453 16.150234 23.980547 15.949688 24.810547 15.929688 z M 25.189453 15.929688 C 25.939453 15.949687 26.669609 16.110391 27.349609 16.400391 C 28.009609 16.670391 28.620156 17.070312 29.160156 17.570312 L 29.050781 17.679688 C 29.000781 17.619688 28.820312 17.589297 28.820312 17.529297 C 28.820312 17.469297 28.659688 17.390469 28.679688 17.480469 C 28.689688 17.580469 28.569297 17.629609 28.529297 17.599609 C 28.499297 17.569609 28.400391 17.699219 28.400391 17.699219 C 28.400391 17.749219 28.370703 17.810078 28.470703 17.830078 C 28.570703 17.850078 28.739766 17.759375 28.759766 17.859375 C 28.759766 17.889375 28.769297 17.919219 28.779297 17.949219 L 28.140625 18.589844 C 28.050625 18.589844 27.970703 18.580078 27.970703 18.580078 C 27.920703 18.730078 27.689766 18.570703 27.759766 18.470703 C 27.819766 18.370703 27.820313 18.300781 27.820312 18.300781 L 27.740234 18.289062 L 27.650391 18.470703 C 27.420391 18.470703 27.360391 18.599687 27.400391 18.679688 C 27.450391 18.759687 27.340547 18.659297 27.310547 18.779297 C 27.270547 18.889297 27.319922 18.889453 27.419922 18.939453 C 27.519922 18.989453 27.369453 18.990313 27.439453 19.070312 C 27.479453 19.130312 27.569609 19.109141 27.599609 19.119141 L 27.480469 19.25 C 27.370469 19.28 27.240234 19.25 27.240234 19.25 C 27.240234 19.29 27.219453 19.310078 27.189453 19.330078 C 26.929453 19.110078 26.649844 18.940547 26.339844 18.810547 C 26.389844 18.770547 26.479531 18.780156 26.519531 18.660156 C 26.579531 18.480156 26.609375 18.189453 26.609375 18.189453 C 26.609375 18.189453 26.349844 18.17 26.339844 18.25 C 26.319844 18.34 26.160156 18.390625 26.160156 18.390625 C 26.160156 18.390625 26.030078 18.44 26.080078 18.5 C 26.130078 18.57 25.980469 18.599609 25.980469 18.599609 C 25.980469 18.599609 25.990234 18.639453 25.990234 18.689453 C 25.730234 18.609453 25.469453 18.560781 25.189453 18.550781 L 25.189453 15.929688 z M 33.779297 16.490234 L 33.589844 16.5 C 33.609844 16.535 33.645781 16.565 33.675781 16.59375 C 33.705781 16.6225 33.730469 16.649688 33.730469 16.679688 C 33.730469 16.714688 33.721563 16.745078 33.726562 16.767578 C 33.731563 16.790078 33.750781 16.805547 33.800781 16.810547 C 33.845781 16.820547 33.885469 16.817266 33.917969 16.822266 C 33.950469 16.827266 33.975234 16.840859 33.990234 16.880859 C 34.020234 16.960859 34.019766 17.090156 34.009766 17.160156 C 33.999766 17.190156 34.002578 17.229219 34.017578 17.261719 C 34.032578 17.294219 34.059609 17.320312 34.099609 17.320312 C 34.139609 17.320312 34.164687 17.324687 34.179688 17.335938 C 34.194688 17.347188 34.199219 17.365625 34.199219 17.390625 C 34.239219 17.350625 34.300781 17.210938 34.300781 17.210938 C 34.255781 17.175937 34.217656 17.120469 34.191406 17.074219 C 34.165156 17.027969 34.150391 16.990234 34.150391 16.990234 C 34.150391 16.990234 34.070312 16.760469 34.070312 16.730469 C 34.070312 16.700469 33.960156 16.670391 33.910156 16.650391 C 33.860156 16.630391 33.779297 16.490234 33.779297 16.490234 z M 32.210938 16.830078 C 32.210938 16.830078 32.188125 16.861719 32.140625 16.886719 C 32.093125 16.911719 32.019922 16.930391 31.919922 16.900391 C 31.919922 16.900391 31.912578 16.9775 31.892578 17.0625 C 31.872578 17.1475 31.839062 17.239531 31.789062 17.269531 L 31.570312 17.269531 C 31.570312 17.269531 31.620156 17.350391 31.660156 17.400391 C 31.685156 17.425391 31.726797 17.461953 31.748047 17.501953 C 31.758672 17.521953 31.764609 17.5425 31.759766 17.5625 C 31.754922 17.5825 31.740938 17.601641 31.710938 17.619141 C 31.655938 17.649141 31.660937 17.662969 31.679688 17.667969 C 31.698438 17.672969 31.730469 17.669922 31.730469 17.669922 C 31.730469 17.669922 31.718984 17.861016 31.654297 17.935547 C 31.632734 17.960391 31.605313 17.973438 31.570312 17.960938 C 31.532813 17.948438 31.500391 17.953125 31.474609 17.96875 C 31.448828 17.984375 31.429688 18.009062 31.414062 18.039062 C 31.382812 18.099062 31.369141 18.175937 31.369141 18.210938 C 31.369141 18.255937 31.697109 18.282578 31.822266 18.255859 C 31.863984 18.246953 31.881875 18.233437 31.859375 18.210938 C 31.834375 18.185938 31.849844 18.141719 31.871094 18.105469 C 31.892344 18.069219 31.919922 18.039062 31.919922 18.039062 C 31.919922 18.039062 32.310625 18.070312 32.390625 18.070312 C 32.430625 18.070312 32.467031 18.067187 32.488281 18.054688 C 32.509531 18.042188 32.515234 18.020469 32.490234 17.980469 C 32.465234 17.935469 32.414844 17.918359 32.371094 17.912109 C 32.327344 17.905859 32.289062 17.910156 32.289062 17.910156 C 32.289062 17.910156 32.099922 17.959375 31.919922 17.859375 C 31.877422 17.834375 31.859219 17.81375 31.855469 17.796875 C 31.851719 17.78 31.863359 17.767813 31.880859 17.757812 C 31.915859 17.737813 31.975234 17.730469 31.990234 17.730469 C 32.005234 17.730469 32.046875 17.702813 32.078125 17.664062 C 32.09375 17.644687 32.108125 17.622578 32.113281 17.599609 C 32.118437 17.576641 32.114609 17.551797 32.099609 17.529297 C 32.069609 17.489297 32.070625 17.433281 32.078125 17.394531 C 32.085625 17.355781 32.099609 17.334141 32.099609 17.369141 C 32.099609 17.439141 32.280547 17.469922 32.310547 17.419922 C 32.325547 17.394922 32.324297 17.344922 32.310547 17.294922 C 32.296797 17.244922 32.270469 17.194922 32.230469 17.169922 C 32.210469 17.157422 32.209531 17.145859 32.21875 17.134766 C 32.227969 17.123672 32.24625 17.113437 32.265625 17.101562 C 32.285 17.089688 32.305937 17.077344 32.316406 17.0625 C 32.326875 17.047656 32.328047 17.029766 32.310547 17.009766 C 32.250547 16.929766 32.210938 16.830078 32.210938 16.830078 z M 49.300781 17.269531 C 49.300781 17.269531 49.000391 18.167234 48.900391 18.865234 C 48.700391 19.663234 47.8 20.761766 47.5 21.759766 C 47.2 22.856766 47.2 23.554688 47 23.554688 C 46.8 23.554688 46.500391 22.857203 46.400391 22.158203 C 46.400391 21.559203 45.500781 20.462234 44.800781 19.365234 C 44.400781 18.467234 44 18.068359 44 18.068359 C 44 18.068359 44.1 21.260594 44.5 22.058594 C 45 23.056594 45.499609 23.952609 46.099609 25.349609 C 46.490273 26.259205 46.535047 26.471879 46.523438 26.523438 C 46.560553 26.486171 46.909772 26.133416 47.099609 25.849609 C 47.299609 25.550609 48.599219 24.451812 49.199219 22.257812 C 49.799219 20.063812 49.300781 17.269531 49.300781 17.269531 z M 46.523438 26.523438 C 46.521451 26.525433 46.5 26.546875 46.5 26.546875 C 46.5 26.546875 46.517216 26.551065 46.523438 26.523438 z M 0.5 17.470703 C 0.5 17.470703 0.29921875 20.961594 0.69921875 22.558594 C 1.3992187 25.152594 3.4003906 26.748047 3.4003906 26.748047 C 3.4003906 26.748047 3.6 25.849172 4 24.951172 C 4.4 24.053172 5.1003906 23.155031 5.4003906 22.457031 C 5.9003906 21.060031 6.0996094 18.46875 6.0996094 18.46875 C 6.0996094 18.46875 5.5992187 19.166625 5.1992188 19.765625 C 4.7992187 20.364625 4.3007813 21.062938 3.8007812 21.960938 C 3.4007813 22.958938 3.3003906 23.756469 2.9003906 23.855469 C 2.3003906 23.955469 2.8007813 22.956766 2.3007812 21.759766 C 1.8007812 20.562766 1.0003906 19.265969 0.90039062 18.667969 C 0.80039063 18.068969 0.5 17.470703 0.5 17.470703 z M 34.320312 17.509766 C 34.305312 17.514766 34.312109 17.563281 34.318359 17.613281 C 34.324609 17.663281 34.330547 17.715469 34.310547 17.730469 C 34.260547 17.760469 34.229688 17.830859 34.179688 17.880859 C 34.154688 17.905859 34.179688 17.933438 34.210938 17.960938 C 34.242188 17.988437 34.279297 18.014062 34.279297 18.039062 C 34.279297 18.089063 34.310547 18.339844 34.310547 18.339844 C 34.310547 18.339844 34.419453 18.389219 34.439453 18.449219 C 34.449453 18.484219 34.449375 18.535625 34.453125 18.578125 C 34.456875 18.620625 34.465234 18.655156 34.490234 18.660156 C 34.515234 18.670156 34.549219 18.693203 34.574219 18.720703 C 34.599219 18.748203 34.614609 18.780547 34.599609 18.810547 C 34.569609 18.880547 34.570312 19.009766 34.570312 19.009766 L 34.630859 19.160156 L 34.759766 19.240234 C 34.759766 19.240234 34.772891 19.140313 34.775391 19.039062 C 34.776641 18.988437 34.774141 18.937344 34.767578 18.898438 C 34.761016 18.859531 34.750469 18.832578 34.730469 18.830078 C 34.690469 18.820078 34.678281 18.757266 34.675781 18.697266 C 34.673281 18.637266 34.679688 18.580078 34.679688 18.580078 C 34.679688 18.580078 34.699375 18.503281 34.703125 18.425781 C 34.705 18.387031 34.704141 18.347422 34.693359 18.318359 C 34.682578 18.289297 34.663359 18.269531 34.630859 18.269531 C 34.600859 18.269531 34.583906 18.259922 34.574219 18.244141 C 34.564531 18.228359 34.561797 18.206719 34.560547 18.183594 C 34.558047 18.137344 34.559531 18.085547 34.519531 18.060547 C 34.479531 18.035547 34.471953 17.965078 34.470703 17.892578 C 34.469453 17.820078 34.475938 17.745937 34.460938 17.710938 C 34.440938 17.680937 34.429063 17.645078 34.414062 17.611328 C 34.399062 17.577578 34.379844 17.544531 34.339844 17.519531 C 34.329844 17.509531 34.330312 17.509766 34.320312 17.509766 z M 27.949219 17.830078 C 27.899219 17.830078 27.859375 17.849609 27.859375 17.849609 L 27.599609 17.880859 L 27.580078 17.990234 L 27.759766 18.009766 C 27.759766 18.009766 27.839844 18.069141 27.839844 18.119141 C 27.839844 18.144141 27.868047 18.170703 27.904297 18.189453 C 27.940547 18.208203 27.984531 18.220703 28.019531 18.220703 C 28.079531 18.220703 28.259766 18.089844 28.259766 18.089844 C 28.259766 18.089844 28.280469 18.031562 28.292969 17.976562 C 28.305469 17.921563 28.309297 17.870859 28.279297 17.880859 C 28.244297 17.885859 28.194844 17.912031 28.152344 17.925781 C 28.109844 17.939531 28.075312 17.940625 28.070312 17.890625 C 28.060312 17.850625 27.999219 17.830078 27.949219 17.830078 z M 20.570312 17.839844 L 22.150391 19.419922 L 22 19.419922 C 21.93 19.559922 21.769531 19.400391 21.769531 19.400391 C 21.739531 19.300391 21.509766 19.400391 21.509766 19.400391 C 21.509766 19.580391 21.210938 19.320312 21.210938 19.320312 L 20.640625 18.910156 C 20.320625 18.610156 19.840312 18.990312 19.820312 19.070312 C 19.830313 19.200312 19.719141 19.199688 19.619141 19.179688 C 19.869141 18.699687 20.190313 18.249844 20.570312 17.839844 z M 27.449219 17.910156 L 27.099609 17.929688 L 27.099609 18.029297 L 27.449219 18.009766 L 27.449219 17.910156 z M 29.519531 18.109375 C 29.519531 18.109375 29.619219 18.120391 29.699219 18.150391 C 29.769219 18.240391 29.849922 18.339688 29.919922 18.429688 L 29.710938 18.400391 L 29.580078 18.390625 L 29.339844 18.369141 C 29.099844 18.529141 29.050781 18.730469 29.050781 18.730469 C 28.940781 18.940469 28.699219 18.720312 28.699219 18.570312 L 29.130859 18.140625 L 29.210938 18.140625 C 29.310938 18.140625 29.519531 18.109375 29.519531 18.109375 z M 29.919922 18.439453 C 29.979922 18.519453 30.039609 18.609453 30.099609 18.689453 C 30.079609 18.739453 30.070078 18.789844 30.080078 18.839844 C 30.130078 19.089844 30.210781 19.189453 30.050781 19.189453 C 29.890781 19.189453 29.859375 19.060547 29.859375 19.060547 C 29.859375 19.060547 29.730469 19.010313 29.730469 19.070312 C 29.730469 19.140312 29.680469 19.269844 29.730469 19.339844 C 29.780469 19.399844 29.659375 19.499219 29.609375 19.449219 C 29.569375 19.399219 29.440703 19.249219 29.470703 19.199219 C 29.500703 19.159219 29.24 18.840781 29.5 18.800781 C 29.76 18.750781 29.490078 18.600313 29.580078 18.570312 L 29.710938 18.5 L 29.839844 18.5 L 29.919922 18.439453 z M 24.970703 18.919922 L 25 19.310547 L 24.820312 19.25 L 24.710938 19.25 L 24.660156 19.160156 L 24.570312 19.140625 L 24.570312 19.5 L 24.660156 19.580078 L 24.740234 19.660156 L 24.910156 19.679688 L 24.939453 19.880859 L 25.339844 19.890625 L 25.390625 19.970703 L 25.630859 19.990234 L 26.099609 20.470703 L 26.070312 20.609375 L 25.990234 20.660156 C 26.020234 20.780156 25.779297 20.710937 25.779297 20.710938 L 25.779297 20.810547 L 25.890625 20.830078 L 26 20.890625 L 26.160156 20.609375 C 26.340156 20.499375 26.419453 20.659766 26.439453 20.759766 C 26.449453 20.859766 26.359375 20.839844 26.359375 20.839844 L 26.359375 21.070312 L 26.449219 21.099609 C 26.619219 21.299609 26.390625 21.419922 26.390625 21.419922 L 26.339844 21.580078 C 26.289844 21.730078 26.119141 21.689453 26.119141 21.689453 L 26.050781 21.789062 L 25.859375 21.839844 L 26.240234 21.890625 C 26.280234 21.760625 26.369922 21.729063 26.419922 21.789062 C 26.469922 21.859063 26.470703 21.970703 26.470703 21.970703 L 26.570312 21.990234 L 26.550781 22.169922 L 26.650391 22.199219 L 26.650391 22.730469 L 26.759766 22.859375 C 26.949766 22.769375 26.959375 22.910703 26.859375 22.970703 C 26.759375 23.040703 26.830078 23.330078 26.830078 23.330078 L 26.75 23.410156 L 26.75 23.539062 L 26.650391 23.609375 L 26.650391 23.789062 C 26.490391 23.709063 26.290234 23.739063 26.240234 23.789062 C 26.100234 23.689062 25.789062 23.720547 25.789062 23.810547 C 25.889063 23.940547 25.679688 23.970703 25.679688 23.970703 L 25.570312 24.099609 C 25.650312 24.269609 25.490234 24.279297 25.490234 24.279297 L 25.490234 24.589844 L 25.289062 24.769531 L 25.300781 25.060547 C 25.200781 25.070547 25.1 25.080078 25 25.080078 C 24.25 25.080078 23.530703 24.810547 22.970703 24.310547 C 22.980703 24.310547 22.99 24.299297 23 24.279297 C 23.08 24.149297 23.210938 24.130859 23.210938 24.130859 L 23.259766 24.019531 L 23.689453 24.039062 C 23.729453 23.859063 23.939453 23.92 23.939453 24 C 23.939453 24.09 24.099609 24.019531 24.099609 24.019531 L 24.210938 23.839844 L 24.390625 23.839844 L 24.400391 23.640625 L 24.490234 23.589844 L 24.490234 23.300781 C 24.740234 23.220781 24.710938 22.970703 24.710938 22.970703 L 24.779297 22.890625 L 24.740234 22.779297 C 24.610234 22.729297 24.679766 22.610625 24.759766 22.640625 C 24.839766 22.680625 24.650391 22.5 24.650391 22.5 C 24.550391 22.58 24.470703 22.400391 24.470703 22.400391 L 24.230469 22.400391 L 24.230469 22.169922 L 24.189453 21.960938 L 23.949219 21.839844 L 23.779297 22.009766 L 23.740234 22.230469 L 23.740234 22.380859 L 23.580078 22.410156 L 23.550781 22.859375 L 23.419922 22.910156 L 23.439453 23.070312 L 23.080078 23.169922 L 23.050781 23.380859 L 22.919922 23.460938 L 22.859375 23.660156 L 22.779297 24.119141 C 22.549297 23.889141 22.360703 23.620078 22.220703 23.330078 C 22.250703 23.210078 22.259766 23.099609 22.259766 23.099609 C 22.109766 23.039609 22.189375 22.81 22.359375 23 C 22.519375 23.2 22.259766 22.609375 22.259766 22.609375 L 22.130859 22.5 L 21.960938 22.480469 C 21.940938 22.320469 21.919922 22.16 21.919922 22 C 21.919922 21.93 21.929687 21.860781 21.929688 21.800781 C 21.979688 21.750781 22.029297 21.779297 22.029297 21.779297 L 22.130859 21.859375 L 22.279297 21.970703 L 22.289062 22.070312 L 22.189453 22.119141 L 22.179688 22.25 L 22.230469 22.429688 L 22.359375 22.429688 C 22.399375 22.169687 22.739844 22.170078 22.839844 22.330078 L 22.939453 22.099609 C 22.709453 21.989609 22.93 21.810625 23 21.890625 C 23.06 21.970625 23.210938 21.679687 23.210938 21.679688 C 23.210938 21.679688 23.320937 21.820859 23.210938 21.630859 C 23.100938 21.430859 23.289062 21.330078 23.289062 21.330078 C 23.259062 21.140078 23.5 21.169922 23.5 21.169922 L 23.519531 20.910156 L 23.289062 20.890625 C 23.239062 21.120625 23.050391 20.919141 23.150391 20.869141 C 23.240391 20.829141 23.339844 20.730469 23.339844 20.730469 L 23.339844 20.560547 L 23.439453 20.529297 L 23.449219 20.369141 L 23.699219 20.369141 L 23.910156 20.269531 L 23.949219 20.189453 L 24.179688 20.169922 L 24.5 19.880859 L 24.470703 19.740234 C 24.280703 19.740234 24.470703 19.599609 24.470703 19.599609 L 24.5 19.349609 L 24.320312 19.349609 L 24.289062 19 C 24.509062 18.95 24.740703 18.919922 24.970703 18.919922 z M 17.990234 20.960938 C 18.140234 20.960938 18.259766 21.039062 18.259766 21.039062 L 18.480469 21.019531 C 18.540469 21.059531 18.569609 21.100391 18.599609 21.150391 C 18.579609 21.300391 18.570547 21.449375 18.560547 21.609375 C 18.530547 21.649375 18.509766 21.679688 18.509766 21.679688 C 18.499766 21.709688 18.490469 21.750547 18.480469 21.810547 L 17.869141 21.810547 L 17.869141 21.789062 L 17.689453 21.779297 C 17.499453 21.659297 17.589844 21.240234 17.589844 21.240234 C 17.729844 21.030234 17.870234 20.970937 17.990234 20.960938 z M 23.599609 21.269531 L 23.570312 21.349609 L 23.490234 21.349609 L 23.470703 21.480469 L 23.570312 21.480469 L 23.580078 21.580078 L 23.519531 21.640625 L 23.490234 21.730469 L 23.359375 21.759766 L 23.070312 22.039062 L 23.050781 22.169922 L 22.970703 22.279297 L 22.869141 22.529297 L 22.529297 22.550781 L 22.470703 22.839844 L 22.519531 23.089844 L 22.810547 23.199219 L 22.839844 23.039062 L 22.939453 22.990234 L 22.949219 22.820312 L 23.019531 22.710938 L 23.109375 22.589844 L 23.150391 22.460938 L 23.310547 22.369141 L 23.5 22.330078 L 23.580078 22.230469 L 23.619141 22.039062 L 23.630859 21.890625 L 23.699219 21.789062 L 23.890625 21.710938 L 23.890625 21.400391 L 23.789062 21.400391 L 23.779297 21.279297 L 23.599609 21.269531 z M 10.009766 22.189453 L 12.279297 22.189453 C 12.289297 23.399453 12.480313 24.580937 12.820312 25.710938 C 12.830312 25.750937 12.849375 25.780313 12.859375 25.820312 L 12.380859 25.820312 L 12.349609 25.740234 L 12.189453 25.710938 L 12.169922 25.529297 L 11.929688 25.539062 L 11.880859 25.640625 L 11.619141 25.660156 C 11.639141 25.820156 11.360078 26.07 11.330078 26 C 11.300078 25.94 11.119219 25.760703 11.199219 25.720703 C 11.279219 25.690703 11.490234 25.660156 11.490234 25.660156 L 11.490234 25.539062 L 10.890625 25.529297 L 10.830078 25.630859 L 10.589844 25.640625 L 10.589844 25.900391 L 10.533203 25.919922 C 10.211812 24.72783 10.025861 23.480489 10.009766 22.189453 z M 12.660156 22.189453 L 15.269531 22.189453 C 15.279531 22.579453 15.309375 22.960078 15.359375 23.330078 C 15.179375 23.350078 15.009766 23.410156 15.009766 23.410156 L 14.929688 23.679688 C 14.749688 23.709688 14.640625 24 14.640625 24 C 14.490625 24.05 14.379687 24.229297 14.429688 24.279297 C 14.479687 24.329297 14.349609 24.349609 14.349609 24.349609 L 14.349609 24.710938 L 14.269531 24.820312 L 14.279297 25.220703 C 14.379297 25.220703 14.359375 25.400391 14.359375 25.400391 C 14.199375 25.410391 14.240234 25.630859 14.240234 25.630859 L 13.900391 25.740234 L 13.830078 25.839844 L 13.410156 25.820312 L 13.300781 25.939453 C 13.260781 25.829453 13.229219 25.719375 13.199219 25.609375 L 13.189453 25.609375 C 12.859453 24.519375 12.680156 23.369453 12.660156 22.189453 z M 15.660156 22.189453 L 16.789062 22.189453 L 16.800781 22.279297 L 16.560547 22.550781 L 16.589844 22.810547 L 16.449219 22.859375 L 16.419922 22.970703 L 16.349609 23.320312 L 16.509766 23.330078 C 16.589766 23.300078 16.579766 23.540078 16.509766 23.580078 C 16.449766 23.610078 16.269141 23.680234 16.369141 23.740234 C 16.459141 23.810234 16.109375 23.789453 16.109375 23.689453 C 16.109375 23.589453 15.919141 23.509062 15.869141 23.539062 C 15.839141 23.559062 15.799531 23.510938 15.769531 23.460938 C 15.709531 23.050937 15.670156 22.619453 15.660156 22.189453 z M 17.330078 22.189453 L 17.410156 22.189453 C 17.450156 22.199453 17.480469 22.220703 17.480469 22.220703 L 17.710938 22.230469 L 17.730469 22.189453 L 18.5 22.189453 L 18.560547 22.609375 L 18.349609 22.789062 C 18.179609 22.889063 18.179141 23.119922 18.369141 23.169922 C 18.499141 23.179922 18.449766 23.499297 18.259766 23.279297 C 18.049766 23.279297 18.219062 23.410469 18.289062 23.480469 C 18.299063 23.490469 18.310547 23.490234 18.310547 23.490234 C 18.580547 23.620234 18.509766 23.349609 18.509766 23.349609 L 18.660156 23.230469 C 18.720156 23.550469 18.809922 23.869922 18.919922 24.169922 C 19.209922 24.999922 19.680781 25.769687 20.300781 26.429688 L 18.259766 28.470703 C 18.129766 28.330703 18.000859 28.189062 17.880859 28.039062 C 17.900859 27.939062 17.970703 27.839844 17.970703 27.839844 C 18.180703 27.699844 17.919922 27.490234 17.919922 27.490234 C 17.949922 27.300234 17.800781 27.070313 17.800781 27.070312 C 17.510781 26.870313 17.589844 26.490234 17.589844 26.490234 L 17.589844 26.230469 C 17.349844 26.000469 17.689453 25.970703 17.689453 25.970703 C 17.799453 25.770703 17.609375 25.619141 17.609375 25.619141 L 17.589844 25.410156 L 17.339844 25.380859 L 17.300781 24.609375 L 16.720703 23.769531 C 16.610703 23.739531 16.689453 23.539062 16.689453 23.539062 C 16.839453 23.459063 16.660156 23.269531 16.660156 23.269531 L 16.640625 22.910156 L 16.980469 22.869141 L 17.060547 22.740234 L 17.220703 22.740234 L 17.210938 22.320312 C 17.240938 22.240313 17.280078 22.199453 17.330078 22.189453 z M 21.359375 22.189453 L 21.550781 22.189453 C 21.550781 22.309453 21.570078 22.419297 21.580078 22.529297 L 21.480469 22.560547 L 21.449219 22.5 L 21.400391 22.679688 L 21.109375 22.679688 L 21.099609 22.480469 L 21.269531 22.429688 L 21.339844 22.330078 L 21.359375 22.189453 z M 32.080078 22.189453 L 34.339844 22.189453 C 34.319844 23.459453 34.029062 24.669297 33.539062 25.779297 C 33.099063 26.769297 32.499766 27.669219 31.759766 28.449219 C 31.729766 28.119219 31.650391 27.75 31.650391 27.75 L 31.519531 27.689453 L 31.550781 27.300781 L 31.380859 27.300781 L 31.089844 27.669922 L 31.050781 27.779297 L 30.890625 27.609375 L 30.970703 27.529297 L 30.960938 27.330078 L 31.070312 27.230469 L 31.070312 27.070312 L 31.169922 27.029297 L 31.179688 26.669922 L 31.259766 26.660156 L 31.259766 25.869141 L 31.019531 25.640625 C 31.009531 25.720625 30.75 25.720703 30.75 25.720703 C 30.75 25.720703 30.680859 25.839844 30.630859 25.839844 C 30.590859 25.839844 30.699922 25.990078 30.669922 26.080078 C 30.629922 26.180078 30.5 26.179688 30.5 26.179688 L 30.259766 26.25 L 30.199219 26.330078 L 29.939453 26.330078 L 29.919922 26.189453 C 29.939922 26.159453 29.97 26.119844 30 26.089844 L 30.199219 26.029297 L 30.359375 25.949219 L 30.439453 25.789062 C 30.459453 25.629062 30.650391 25.640625 30.650391 25.640625 C 30.650391 25.640625 31.019063 25.329688 31.039062 25.179688 C 31.049063 25.039687 31.180156 24.630859 31.410156 24.630859 L 31.830078 24.630859 C 31.990078 24.560859 31.939453 24.349609 31.939453 24.349609 L 32.150391 24.320312 L 32.179688 24.429688 C 32.179688 24.429688 32.469766 24.460156 32.509766 24.410156 C 32.539766 24.360156 32.599688 24.250781 32.679688 24.300781 C 32.759687 24.350781 33.019531 24.179688 33.019531 24.179688 C 33.039531 24.069688 33.439453 24.119141 33.439453 24.119141 L 33.490234 23.970703 C 33.490234 23.970703 33.219922 23.589844 33.169922 23.589844 C 33.119922 23.589844 32.860078 23.359219 32.830078 23.449219 C 32.570078 23.379219 32.589844 23.019531 32.589844 23.019531 L 32.490234 22.789062 C 32.490234 22.659063 32.249219 22.379922 32.199219 22.419922 C 32.099219 22.339922 32.070078 22.259453 32.080078 22.189453 z M 34.730469 22.189453 L 37.339844 22.189453 C 37.309844 23.979453 36.899688 25.680703 36.179688 27.220703 C 35.599688 28.460703 34.809375 29.600078 33.859375 30.580078 L 33.789062 30.509766 C 33.779063 30.329766 33.769531 30.099609 33.769531 30.099609 L 33.679688 30.009766 L 33.669922 29.599609 C 33.729922 29.389609 33.360078 29.080391 33.330078 29.150391 C 33.300078 29.210391 33.089844 29.160469 33.089844 29.230469 C 33.089844 29.290469 32.959531 29.620234 33.019531 29.740234 L 32.019531 28.740234 C 32.809531 27.920234 33.440625 26.980937 33.890625 25.960938 C 34.410625 24.790938 34.700469 23.509453 34.730469 22.189453 z M 37.730469 22.189453 L 39.990234 22.189453 C 39.940359 26.190194 38.333973 29.806039 35.744141 32.464844 L 34.140625 30.859375 C 35.130625 29.829375 35.939297 28.670391 36.529297 27.400391 C 37.289297 25.790391 37.700469 24.019453 37.730469 22.189453 z M 17.710938 22.560547 L 17.720703 22.679688 L 17.800781 22.679688 C 17.833281 22.737188 17.849453 22.814531 17.857422 22.898438 C 17.865391 22.982344 17.865 23.073125 17.859375 23.15625 C 17.848125 23.3225 17.820312 23.460937 17.820312 23.460938 C 17.820312 23.460938 17.773203 23.464531 17.720703 23.457031 C 17.668203 23.449531 17.609844 23.430859 17.589844 23.380859 C 17.582344 23.355859 17.571172 23.355313 17.560547 23.371094 C 17.549922 23.386875 17.540703 23.4175 17.533203 23.453125 C 17.518203 23.524375 17.515781 23.615625 17.550781 23.640625 C 17.580781 23.665625 17.6525 23.665391 17.71875 23.681641 C 17.751875 23.689766 17.782734 23.70125 17.806641 23.722656 C 17.830547 23.744062 17.847109 23.775313 17.849609 23.820312 C 17.859609 23.910312 17.896641 23.882031 17.931641 23.832031 C 17.966641 23.782031 18 23.710938 18 23.710938 L 18 22.589844 L 17.710938 22.560547 z M 19.009766 23.019531 C 19.149766 23.069531 19.310547 23.290078 19.310547 23.330078 C 19.310547 23.380078 19.949219 23.349609 19.949219 23.349609 C 20.129219 23.459609 20.189453 23.759766 20.189453 23.759766 C 20.369453 23.529766 20.740703 23.739141 20.470703 23.869141 C 20.730703 24.039141 20.730469 24.179687 20.730469 24.179688 C 20.940469 24.119688 20.939453 24.280078 20.939453 24.330078 C 20.959453 24.270078 21 24.080078 21 24.080078 C 20.76 23.900078 21.320156 23.839922 21.160156 24.169922 L 21.060547 24.310547 L 21.230469 24.449219 L 21.240234 24.820312 C 21.600234 24.790312 21.5 24.349609 21.5 24.349609 L 21.660156 24.310547 C 21.660156 24.170547 21.769531 24.25 21.769531 24.25 C 21.699531 23.86 21.849219 23.700859 21.949219 23.630859 C 22.079219 23.870859 22.239922 24.100781 22.419922 24.300781 L 20.570312 26.160156 C 20.000312 25.550156 19.569063 24.840078 19.289062 24.080078 C 19.169062 23.740078 19.079766 23.379531 19.009766 23.019531 z M 44.099609 23.654297 C 44.099609 23.654297 43.700781 26.149484 43.800781 27.146484 C 43.900781 28.144484 44.199609 29.740109 44.099609 31.037109 C 43.999609 32.434109 43.800781 33.03125 43.800781 33.03125 C 43.800781 33.03125 47.800781 30.538141 48.800781 28.244141 C 49.400781 26.847141 50 24.453125 50 24.453125 C 50 24.453125 49.799219 24.852391 49.199219 25.650391 C 48.599219 26.548391 47.7 26.846359 47 27.943359 C 46.1 29.340359 45.199219 30.138672 45.199219 30.138672 C 45.199219 30.138672 45.400781 27.845484 45.300781 27.146484 C 45.200781 26.348484 44.099609 23.654297 44.099609 23.654297 z M 6 23.853516 C 6 23.853516 4.7996094 26.148922 4.5996094 28.044922 C 4.4996094 29.141922 4.8996094 30.337891 4.5996094 30.337891 C 4.1996094 30.437891 3.0996094 28.142922 2.5996094 27.544922 C 1.9996094 26.846922 1.6 26.547219 1 25.949219 C 0.4 25.450219 0 24.453125 0 24.453125 C 0 24.453125 0.10078125 25.450047 0.30078125 26.248047 C 0.50078125 27.046047 1.7 29.640891 3 30.837891 C 4.3 32.034891 6.0996094 33.232422 6.0996094 33.232422 C 6.0996094 33.232422 6.0007812 32.233547 5.8007812 31.435547 C 5.6007812 30.637547 6.0992187 29.041531 6.1992188 27.644531 C 6.2992188 26.247531 6 23.853516 6 23.853516 z M 18.109375 23.859375 L 17.869141 24.019531 L 17.710938 23.919922 L 17.710938 24.310547 L 17.970703 24.660156 L 18.060547 24.429688 L 18.099609 24.279297 L 17.980469 24.230469 L 18 23.990234 L 18.099609 23.970703 L 18.109375 23.859375 z M 24.080078 24.269531 L 23.939453 24.279297 L 23.949219 24.509766 L 24.050781 24.589844 L 24.230469 24.640625 C 24.230469 24.640625 24.289062 24.625937 24.351562 24.585938 C 24.382812 24.565938 24.416094 24.539609 24.441406 24.505859 C 24.466719 24.472109 24.485234 24.430859 24.490234 24.380859 L 24.109375 24.359375 L 24.080078 24.269531 z M 26.119141 24.390625 C 26.249141 24.390625 26.220703 24.720078 26.220703 24.830078 C 26.120703 24.870078 26.019922 24.899453 25.919922 24.939453 L 25.919922 24.580078 L 26.080078 24.400391 C 26.100078 24.390391 26.109141 24.390625 26.119141 24.390625 z M 22.699219 24.580078 C 23.259219 25.080078 23.960938 25.379219 24.710938 25.449219 C 24.710938 25.449219 24.689453 25.510547 24.689453 25.560547 C 24.689453 25.590547 24.690703 25.609141 24.720703 25.619141 C 24.800703 25.649141 24.770547 25.659219 24.810547 25.699219 L 24.769531 25.779297 C 24.709531 25.699297 24.680937 25.850859 24.710938 25.880859 C 24.750937 25.920859 24.630859 25.899453 24.630859 25.939453 C 24.630859 25.989453 24.590859 26.019062 24.630859 26.039062 C 24.660859 26.069063 24.610313 26.079141 24.570312 26.119141 C 24.520312 26.149141 24.769531 26.169922 24.769531 26.169922 C 24.769531 26.169922 24.719297 26.070312 24.779297 26.070312 L 24.810547 26.070312 L 24.810547 26.230469 C 24.790547 26.230469 24.770234 26.220937 24.740234 26.210938 L 24.740234 26.330078 L 24.609375 26.349609 L 24.730469 26.480469 L 24.810547 26.490234 L 24.810547 26.769531 C 24.810547 26.979531 24.280469 26.839063 24.230469 26.789062 L 24.210938 27.080078 L 24.109375 27.099609 L 24.130859 27.300781 L 24.109375 27.570312 L 24.289062 27.539062 L 24.289062 27.660156 L 24.730469 27.669922 L 24.810547 27.580078 L 24.810547 27.900391 L 24.519531 27.929688 L 24.390625 28 L 24.339844 27.900391 L 24.210938 27.900391 L 24.130859 28.009766 C 23.750859 27.959766 23.369766 27.870234 23.009766 27.740234 C 22.209766 27.460234 21.479609 27.019688 20.849609 26.429688 L 22.699219 24.580078 z M 28.630859 24.789062 C 28.670859 24.789062 28.699688 24.809141 28.679688 24.869141 C 28.629687 25.019141 28.679687 25.080078 28.679688 25.080078 C 28.889688 24.890078 29.070781 25.100391 29.050781 25.150391 C 29.040781 25.200391 29.17 25.249219 29.25 25.199219 C 29.33 25.149219 29.420625 25.349453 29.390625 25.439453 C 29.360625 25.539453 29.070781 25.529687 29.050781 25.429688 C 29.040781 25.329687 28.990938 25.360156 28.960938 25.410156 C 28.930937 25.450156 28.820234 25.480937 28.740234 25.460938 L 28.669922 25.390625 C 28.679922 25.370625 28.689922 25.360078 28.669922 25.330078 C 28.639922 25.300078 28.610078 25.300781 28.580078 25.300781 L 28.439453 25.160156 C 28.439453 25.060156 28.470938 24.930625 28.460938 24.890625 C 28.450937 24.850625 28.560859 24.789062 28.630859 24.789062 z M 26.220703 25.240234 C 26.220703 25.280234 26.25 25.330078 26.25 25.330078 L 26.330078 25.359375 L 26.179688 25.480469 L 26.050781 25.619141 L 25.890625 25.570312 L 25.699219 25.560547 L 25.630859 25.439453 L 25.519531 25.429688 L 25.5 25.660156 L 25.419922 25.75 L 25.230469 25.949219 C 25.430469 25.949219 25.299219 26.059375 25.199219 26.109375 L 25.199219 25.449219 C 25.409219 25.439219 25.610547 25.409375 25.810547 25.359375 L 25.839844 25.390625 L 25.990234 25.390625 L 26 25.310547 C 26.07 25.290547 26.150703 25.270234 26.220703 25.240234 z M 24.390625 25.560547 C 24.368125 25.558047 24.347031 25.571797 24.328125 25.595703 C 24.309219 25.619609 24.291016 25.653828 24.275391 25.689453 C 24.244141 25.760703 24.219219 25.839141 24.199219 25.869141 C 24.199219 25.869141 24.209766 25.905 24.228516 25.9375 C 24.247266 25.97 24.275547 26.000234 24.310547 25.990234 C 24.380547 25.980234 24.430234 25.939688 24.490234 25.929688 C 24.520234 25.924688 24.543047 25.898125 24.560547 25.859375 C 24.578047 25.820625 24.589609 25.770703 24.599609 25.720703 C 24.614609 25.670703 24.610312 25.635781 24.601562 25.613281 C 24.592813 25.590781 24.580078 25.580078 24.580078 25.580078 C 24.580078 25.580078 24.519922 25.670078 24.419922 25.580078 C 24.409922 25.560078 24.400625 25.560547 24.390625 25.560547 z M 27.699219 25.689453 L 27.810547 25.689453 L 27.830078 25.769531 L 28.320312 25.820312 L 28.339844 25.820312 C 28.539844 25.930312 28.440859 26.079375 28.380859 26.109375 C 28.310859 26.149375 28.199219 26.150391 28.199219 26.150391 L 28.169922 26.210938 L 27.75 26.25 L 27.710938 26.410156 C 27.500937 26.380156 27.420703 26.610703 27.470703 26.720703 C 27.520703 26.840703 27.470703 26.929688 27.470703 26.929688 L 27.650391 27.019531 L 27.880859 26.949219 C 27.910859 26.789219 28.049687 26.750156 28.179688 26.660156 C 28.309687 26.560156 28.520938 26.840703 28.460938 26.970703 C 28.450937 26.980703 28.439453 26.989766 28.439453 27.009766 C 28.189453 27.179766 27.930156 27.330938 27.660156 27.460938 C 27.240156 27.670937 26.780547 27.829688 26.310547 27.929688 C 26.300547 27.919687 26.289062 27.919922 26.289062 27.919922 L 26.119141 27.869141 L 26.099609 27.619141 C 26.069609 27.459141 25.759297 27.460312 25.779297 27.570312 C 25.789297 27.690313 25.199219 27.619141 25.199219 27.619141 L 25.199219 27.169922 L 25.359375 27 L 25.730469 26.919922 C 25.760469 26.749922 25.919922 26.949219 25.919922 26.949219 C 26.079922 26.929219 26.119141 27.050781 26.119141 27.050781 L 26.330078 27.080078 C 26.500078 27.130078 26.400156 27.150937 26.410156 27.210938 C 26.420156 27.310938 26.5 27.279297 26.5 27.279297 L 26.539062 27.070312 L 26.630859 27.080078 L 26.539062 26.970703 L 26.359375 26.880859 L 26.160156 26.800781 C 26.040156 26.620781 26.200078 26.659922 26.330078 26.669922 L 26.539062 26.669922 C 26.539062 26.669922 26.779297 27.000078 26.779297 27.080078 C 26.779297 27.160078 26.890625 27.179687 26.890625 27.179688 L 27.039062 27.160156 L 27.080078 27.279297 L 27.230469 27.279297 L 27.279297 27.380859 L 27.570312 27.380859 L 27.589844 27.230469 L 27.310547 27.179688 L 27.289062 27.019531 L 27.099609 26.970703 C 27.039609 26.690703 27.150469 26.610234 27.230469 26.740234 L 27.330078 26.75 L 27.289062 26.509766 L 27.410156 26.480469 L 27.369141 26.130859 L 27.279297 26.099609 L 27.279297 25.980469 L 27.679688 26 C 27.649687 25.79 27.699219 25.689453 27.699219 25.689453 z M 20.570312 26.699219 C 21.230313 27.319219 21.990312 27.790078 22.820312 28.080078 C 23.040312 28.160078 23.27 28.229063 23.5 28.289062 C 23.46 28.319063 23.439219 28.350859 23.449219 28.380859 C 23.479219 28.460859 23.320312 28.539063 23.320312 28.539062 L 23.179688 28.589844 L 23.080078 28.740234 L 22.890625 28.800781 L 22.849609 29.150391 L 22.759766 29.210938 L 22.759766 29.359375 L 22.640625 29.390625 L 22.640625 29.470703 L 22.480469 29.490234 L 22.580078 29.740234 L 22.710938 29.800781 C 22.930937 29.830781 22.839844 30.109375 22.839844 30.109375 L 22.970703 30.130859 L 23.029297 30.310547 L 23.160156 30.570312 C 23.210156 30.770312 23.349922 30.719219 23.419922 30.699219 C 23.479922 30.699219 23.550781 30.900391 23.550781 30.900391 L 24.189453 30.919922 C 24.189453 30.919922 24.159531 30.979766 24.269531 31.009766 C 24.339531 31.029766 24.590547 31.050781 24.810547 31.050781 L 24.810547 31.339844 C 23.620547 31.319844 22.460625 31.069141 21.390625 30.619141 C 20.520625 30.259141 19.710703 29.760625 18.970703 29.140625 L 18.539062 28.740234 L 20.570312 26.699219 z M 11.242188 27.287109 C 11.279531 27.290547 11.308047 27.305078 11.310547 27.330078 C 11.330547 27.430078 11.509766 27.480469 11.509766 27.480469 C 11.539766 27.720469 11.810391 27.869141 11.900391 27.619141 C 11.980391 27.379141 12.039844 27.520625 12.089844 27.640625 C 12.139844 27.750625 12.439453 28.029297 12.439453 28.029297 L 12.689453 28.029297 L 12.720703 28.259766 C 12.990703 28.249766 13.069453 28.280391 13.189453 28.650391 C 13.299453 29.030391 13.609375 29.130859 13.609375 29.130859 L 13.830078 29.109375 C 13.830078 28.919375 14.060547 29.150234 14.060547 29.240234 C 14.060547 29.340234 14.490234 29.720703 14.490234 29.720703 L 14.929688 29.820312 L 15.009766 29.880859 C 15.279766 30.220859 15.559141 30.549375 15.869141 30.859375 L 14.259766 32.470703 C 12.915655 31.092073 11.839229 29.455479 11.103516 27.640625 L 11.099609 27.560547 C 10.934609 27.365547 11.130156 27.276797 11.242188 27.287109 z M 28.650391 27.330078 L 29.039062 27.519531 C 29.089063 27.589531 29.300781 27.570312 29.300781 27.570312 L 29.359375 27.660156 C 29.359375 27.660156 29.490313 27.640234 29.570312 27.740234 C 29.650313 27.840234 30.070313 27.75 30.070312 27.75 L 30.179688 27.849609 L 30.359375 27.919922 L 30.660156 27.929688 L 30.849609 28.109375 C 30.549609 28.249375 29.959688 28.200156 29.929688 28.160156 C 29.879687 28.110156 29.539062 27.970703 29.539062 27.970703 C 29.539062 27.970703 29.280469 27.750312 29.230469 27.820312 C 29.180469 27.880312 28.960937 27.739063 28.960938 27.789062 C 28.960938 27.839062 28.75 27.669922 28.75 27.669922 L 28.419922 27.560547 L 28.669922 27.509766 L 28.630859 27.349609 C 28.640859 27.339609 28.650391 27.340078 28.650391 27.330078 z M 42.599609 28.542969 C 42.599609 28.542969 41.4 31.037375 41 32.234375 C 40.6 33.431375 40.500781 35.326609 40.300781 36.224609 C 40.100781 37.122609 39.699219 37.521484 39.699219 37.521484 C 39.699219 37.521484 43.500781 37.222781 45.300781 35.925781 C 48.200781 33.930781 48.699219 30.537109 48.699219 30.537109 C 48.699219 30.537109 47.700391 32.034031 46.400391 32.832031 C 45.600391 33.331031 44.099219 34.128562 43.199219 34.726562 C 42.399219 35.325562 42.200781 36.123828 41.800781 35.923828 C 41.400781 35.723828 41.900781 34.727687 42.300781 33.929688 C 42.600781 33.231687 42.799609 32.233156 42.599609 31.535156 L 42.599609 28.542969 z M 7.5 28.841797 C 7.5 28.841797 7.6003906 29.639672 7.4003906 30.138672 C 7.2003906 31.136672 7.3996094 33.530344 7.5996094 34.527344 C 7.7996094 35.425344 8.4 36.024609 8 36.224609 C 7.6 36.424609 7.3992187 35.824953 6.6992188 35.126953 C 6.0992187 34.427953 4.2 33.830031 3 32.832031 C 2 31.735031 1.0996094 30.636719 1.0996094 30.636719 C 1.0996094 30.636719 2 32.732125 3 34.328125 C 4 35.924125 6.6 36.921703 7.5 37.220703 C 8.4 37.519703 10.300781 37.619141 10.300781 37.619141 C 10.300781 37.619141 9.8 37.020828 9.5 35.923828 C 9.2 34.925828 9.2992188 32.531375 8.6992188 31.234375 C 7.9992188 29.739375 7.5 28.841797 7.5 28.841797 z M 31.75 29.009766 L 32.460938 29.720703 C 32.430937 29.840703 32.31 29.909141 32.25 29.869141 C 32.28 29.899141 32.339375 29.969766 32.359375 30.009766 C 32.399375 30.079766 32.489531 30.079766 32.519531 30.009766 C 32.549531 29.969766 32.550781 29.890313 32.550781 29.820312 L 32.880859 30.150391 C 32.840859 30.230391 32.800313 30.319141 32.820312 30.369141 L 32.960938 30.439453 L 32.980469 30.720703 C 33.090469 30.830703 33.329531 30.819062 33.519531 30.789062 L 33.589844 30.859375 C 32.989844 31.429375 32.340625 31.950391 31.640625 32.400391 L 31.640625 32.240234 C 31.930625 32.030234 31.939922 31.649141 31.669922 31.619141 C 31.459922 31.589141 31.56 31.369844 31.75 31.339844 L 31.859375 31.289062 L 31.859375 31.140625 L 32.230469 30.800781 L 32.230469 30.539062 L 31.429688 29.869141 C 31.259687 29.809141 31.250547 29.600156 31.310547 29.410156 C 31.460547 29.280156 31.6 29.149766 31.75 29.009766 z M 19.080078 29.720703 C 19.730078 30.220703 20.439219 30.640938 21.199219 30.960938 C 22.329219 31.440938 23.550547 31.700469 24.810547 31.730469 L 24.810547 34.339844 C 23.090547 34.309844 21.430156 33.940234 19.910156 33.240234 C 18.630156 32.660234 17.450156 31.859375 16.410156 30.859375 L 16.789062 30.480469 C 16.809062 30.520469 16.830078 30.559141 16.830078 30.619141 C 16.870078 30.869141 16.980469 30.820313 16.980469 30.820312 L 17.900391 30.800781 L 18.220703 30.519531 L 19.050781 30.509766 C 19.460781 30.489766 19.210859 29.919922 19.130859 29.919922 C 19.080859 29.879922 19.070078 29.800703 19.080078 29.720703 z M 15.919922 29.990234 C 16.059922 30.000234 16.249531 30.160469 16.269531 30.230469 C 16.289531 30.260469 16.330859 30.309609 16.380859 30.349609 L 16.140625 30.589844 C 15.990625 30.429844 15.850938 30.269375 15.710938 30.109375 L 15.769531 30.109375 C 15.799531 30.019375 15.849922 29.990234 15.919922 29.990234 z M 25.480469 30.900391 C 25.580469 30.900391 25.68 30.930469 25.75 30.980469 C 25.92 31.110469 26.169922 31.029297 26.169922 31.029297 L 26.339844 31.25 C 25.969844 31.3 25.589219 31.329844 25.199219 31.339844 L 25.199219 30.949219 C 25.249219 30.909219 25.360469 30.890391 25.480469 30.900391 z M 16.140625 31.130859 C 17.200625 32.160859 18.410703 32.980078 19.720703 33.580078 C 21.300703 34.300078 23.020547 34.700469 24.810547 34.730469 L 24.810547 36.990234 C 20.807302 36.940327 17.188563 35.332916 14.529297 32.740234 L 16.140625 31.130859 z M 33.869141 31.130859 L 35.470703 32.738281 C 32.813529 35.329375 29.199029 36.937806 25.199219 36.990234 L 25.199219 34.720703 C 26.379219 34.710703 27.530859 34.529219 28.630859 34.199219 L 28.910156 34.289062 L 28.990234 34.550781 L 29.119141 34.529297 L 29.220703 34.449219 L 29.599609 34.439453 L 29.800781 34.259766 L 30.009766 34.220703 L 31.529297 32.929688 C 32.369297 32.429688 33.149141 31.830859 33.869141 31.130859 z M 26.539062 31.609375 L 26.570312 31.679688 L 26.839844 31.769531 L 27.039062 31.820312 L 27.099609 32.089844 L 27.25 32.109375 L 27.300781 32.289062 C 27.470781 32.419063 27.25 32.699219 27.25 32.699219 L 27.25 33.060547 L 27.380859 33.130859 L 27.359375 33.259766 L 27.570312 33.470703 L 27.810547 33.490234 L 28.210938 33.910156 C 27.250938 34.180156 26.239219 34.319844 25.199219 34.339844 L 25.199219 31.730469 C 25.649219 31.720469 26.099062 31.679375 26.539062 31.609375 z M 39.5 33.529297 C 39.5 33.529297 37.499609 35.326437 36.599609 36.523438 C 35.799609 37.621438 35.599219 38.717625 34.699219 39.515625 C 33.699219 40.412625 33.099609 40.613281 33.099609 40.613281 C 33.099609 40.613281 34.199219 40.813719 34.699219 40.511719 C 35.299219 40.311719 36.100781 40.511156 36.800781 40.910156 C 37.500781 41.309156 39.699609 41.309719 41.599609 40.511719 C 44.599609 39.314719 45.300781 37.019531 45.300781 37.019531 C 45.300781 37.019531 44.299609 37.718969 43.099609 38.417969 C 41.899609 39.116969 40.700781 39.115625 39.800781 39.015625 C 38.900781 38.915625 38.199609 39.216625 37.599609 39.515625 C 36.999609 39.814625 36.5 39.515625 36.5 39.515625 C 36.5 39.515625 37.500781 38.916703 38.300781 37.220703 C 38.900781 36.023703 39.5 33.529297 39.5 33.529297 z M 10.800781 33.628906 C 10.800781 33.628906 11.300781 36.322922 12.300781 37.919922 C 12.900781 39.016922 13.799219 39.415625 13.699219 39.515625 C 13.599219 39.615625 12.8 39.614063 12.5 39.414062 C 12.2 39.314062 11.4 39.016016 10.5 38.916016 C 9.6 38.816016 8.3007812 39.214406 6.8007812 38.316406 C 6.1007812 38.018406 4.6992187 36.921875 4.6992188 36.921875 C 4.6992188 36.921875 4.8992187 37.421969 6.1992188 38.917969 C 8.1992188 41.112969 10.499219 41.210937 11.699219 41.210938 C 12.999219 41.210938 14.399219 40.711328 15.199219 40.611328 C 15.999219 40.511328 17.199219 40.611328 17.199219 40.611328 C 17.199219 40.611328 16.300391 40.212063 15.400391 39.414062 C 14.500391 38.716062 14.700391 37.818656 13.400391 36.222656 C 12.100391 34.526656 10.800781 33.628906 10.800781 33.628906 z M 29.828125 40.90625 C 29.56875 40.885906 29.324609 40.885406 29.099609 40.910156 C 27.299609 41.010156 25 41.410156 25 41.410156 C 25 41.410156 23.199219 41.210719 22.199219 41.011719 C 21.199219 40.811719 19.499219 40.910766 17.199219 41.509766 C 14.999219 42.108766 13.700391 42.508422 12.400391 42.607422 C 11.100391 42.706422 9.3007813 41.810547 9.3007812 41.810547 C 9.3007812 41.810547 9.5992187 42.608031 11.199219 43.207031 C 12.699219 43.905031 15.299609 44.104297 16.599609 43.904297 C 17.899609 43.804297 18.5 43.505422 20 42.607422 C 21.5 41.709422 22.199609 41.610719 23.099609 41.511719 C 23.999609 41.412719 24 41.611328 24 41.611328 C 24 41.611328 22.5 42.408641 21 43.306641 C 19.6 44.304641 18.5 45.302734 18.5 45.302734 L 19.099609 45.900391 C 19.099609 45.900391 19.299219 45.602078 20.699219 44.205078 C 22.199219 42.808078 24.499219 41.810547 25.199219 41.810547 C 25.899219 41.810547 27.799219 42.809641 29.199219 43.806641 C 30.599219 44.803641 31.400391 46 31.400391 46 L 31.900391 45.400391 C 31.900391 45.400391 29.800391 43.605813 28.900391 43.007812 C 28.100391 42.309812 26.400391 41.710937 26.400391 41.710938 C 26.400391 41.710938 27.300391 41.610937 27.900391 41.710938 C 28.500391 41.710938 29.8 42.407078 31 43.205078 C 32.2 44.003078 33.299609 44.204297 36.099609 43.904297 C 40.699609 43.505297 40.900391 42.009766 40.900391 42.009766 C 40.900391 42.009766 39.4 42.807031 37.5 42.707031 C 36.2 42.707031 33.8 41.908766 32.5 41.509766 C 31.525 41.210516 30.60625 40.967281 29.828125 40.90625 z"/></svg>